<?xml version="1.0" encoding="utf-8"?>
<!-- Generator: Adobe Illustrator 26.2.1, SVG Export Plug-In . SVG Version: 6.00 Build 0)  -->
<svg version="1.1" id="Capa_1" xmlns="http://www.w3.org/2000/svg" xmlns:xlink="http://www.w3.org/1999/xlink" x="0px" y="0px"
	 viewBox="0 0 336 439" style="enable-background:new 0 0 336 439;" xml:space="preserve">
<style type="text/css">
	.st0{fill:#121314;}
	.st1{fill:#8BAFC1;}
	.st2{fill:#E9CAB3;}
	.st3{fill:#FCFCFC;}
	.st4{fill:#A92D2C;}
</style>
<g>
	<path class="st0" d="M208.1,215.8c0.3,3.3,0.5,6.3,0.8,9.4c0.7,5,0.1,9.7,0.5,14.6c0.9,11.2,0.8,22.4,1.4,33.8
		c0.1,2-0.3,4.2-0.1,6.3c0.5,6.7-0.1,13.5,0.3,20.4c0.3,5,0.1,10.1-0.5,15c-0.7,4.6-0.5,9.1,1.8,13.5c1.4,2.8,1.9,5.9,2.4,9
		c0.7,4.4-1.2,7.9-4.8,10.4c-3.6,2.5-7.4,3.3-11.8,2.5c-4.8-0.8-9.3-1.9-13.5-4.3c-4.3-2.4-6.3-6-6.6-10.8
		c-0.5-6.2-0.8-12.5-0.1-18.6c0.1-1.8-0.7-3.6-1.4-5.2c-2-5.1-2.8-10.7-3.9-16.1c-0.9-4.2-1.5-8.6-2.3-12.7
		c-0.3-1.8-0.8-2.8-2.7-1.9c-0.7,0.3-1.4,0.3-1.8,0.1c-1.8-0.7-2.3,0.3-2.5,1.9c-1.4,9-2.4,18-4.3,26.9c-1.8,8.4-2.3,16.8-2,25.2
		c0,0.9-0.3,1.8-0.9,2.3c-3.6,2.8-6.2,6.7-10.3,9.1c-4.8,2.7-10.3,4.4-15.4,2.4c-9.7-3.9-13.7-10.3-9.4-20.4c0,0,0-0.1,0.1-0.1
		c5.1-5.4,3.7-12.1,3.6-18.5c-0.3-9.3-0.9-18.6-1.6-27.9c-0.3-4.2,0.3-8.3,0-12.5c-0.8-11,1.1-21.8,1.8-32.4
		c0.5-6.2,1.9-12.2,2-18.6c0-1.8,0-3.7,0-5.6c0-1.1-0.1-1.9-1.4-0.8c-7.5,6.7-16.1,12.2-22.4,20.4c-0.7,0.9-1.4,1.6-2.3,2.3
		c-1.1,0.9-1.6,1.6-0.5,2.8c0.8,0.8,0.1,1.4-0.3,1.8c-1.6,2.3-3.7,4.2-5.1,6.7c-0.3,0.5-0.8,0.8-1.4,0.9c-0.8,0.1-1.4-0.9-2,0
		c-0.9,1.2-2.4,2-2.8,3.7c-1.1,4.3-5.8,7.5-10.2,6.7c-1.5-0.3-2.5,0-3.7,0.9c-1.6,1.1-3.3,3.1-5.6,2c-3.1-1.2-5.4-3.3-6.7-6.4
		c-1.1-2.8-1.2-5.8-0.1-8.7c1.9-5.9,4.6-11.2,9.4-15.3c0.5-0.5,0.9-0.8,0.1-1.4c-0.7-0.7-0.3-1.5,0-1.9c1.8-3.1,3.9-5.9,7.4-7.1
		c0.7-0.1,1.2-0.3,1.6,0c1.4,1.4,2,0.3,3.2-0.7c7.9-7.6,15.1-15.9,23.8-22.7c3.6-2.8,7.4-5.4,11.2-8.3c-8.8-5.4-17.2-11.1-23.7-19.2
		c-0.1,0.1-0.5,0.3-0.5,0.3c0,1.1,0.3,2.4-0.7,3.1c-1.2,0.7-2.3-0.7-3.2-1.4c-5.2-4.8-8.8-10.8-11.8-17.2
		c-2.8-6.4-5.2-13.3-6.2-20.2c0-0.3,0.1-0.9-0.7-0.9c-0.3,0-0.8,0.3-0.8,0.7c0,0.5-0.7,0.9-0.3,1.4c0.3,0.7,0.3,1.2-0.5,1.2
		c-0.7,0.1-1.1,0-1.5-0.9c-3.9-10.1-6.6-20.4-7.8-30.8c-0.9-9.4-1.2-19.2,2.3-28c2.8-7.5,6.2-14.6,10.1-21.6
		c7.6-13.4,19-22.6,31.5-31.1c6.7-4.6,14.1-8.3,21.6-11.5c7.8-3.5,15.9-5.6,24.1-7.9c11.7-3.3,23-1.9,34.6,0.9
		c23.7,5.8,44.3,16.9,62.2,33.6c12.2,11.4,18.4,25.6,20.2,41.9c0.9,7.1,0.9,14.5,1.5,21.9c1.2,12.9-2.7,24.7-8.2,36.3
		c-3.2,6.8-7.9,12.9-12.2,19c-5.2,7.4-11.4,13.5-18.4,19.2c-2.5,2-5,4-8.4,4.6c-2,0.5-3.9,2.3-5.9,3.5c-1.1,0.7-1.8,1.1-3.2,0.1
		c-1.4-0.9-1.5,0.9-2.3,1.5c-0.8,0.5-0.3,0.9,0.3,1.2c7.9,3.6,13,10.4,19,16.3c3.1,2.8,5.6,6,8.4,9c2.4,2.8,5.8,5,8.4,7.4
		c1.8,1.5,3.5,3.2,4.8,5.1c0.5,0.7,0.9,0.9,1.6,0.9c1.9-0.1,3.1,0.9,3.9,2.4c2.3,3.5,4.6,6.6,6.2,10.7c1.1,2.8,3.5,5.2,5.4,7.8
		c4.8,6.6,3.6,13.4,0.8,20.1c-1.9,4.6-8.6,5.6-12.2,1.9c-1.4-1.4-2.5-1.9-4.6-1.1c-3.7,1.8-9.9-2.3-10.1-6.3
		c-0.1-2.7-2.4-3.5-3.6-5.1c-2.7-3.5-5.6-6.7-8.3-10.2c-0.5-0.5-0.8-1.4-0.8-1.9c0.3-2.4-1.2-4-2.4-5.9
		c-4.8-7.1-10.8-13.5-16.6-19.6C210.2,217.9,209.6,216.4,208.1,215.8z M74.5,228.6c0.3,0.3,0.7,0.9,1.4,0.9
		c-0.1-0.7-0.7-0.9-1.1-1.2c-0.7-0.5-1.1-1.2-1.9-1.2C72.8,228.3,73.8,228.3,74.5,228.6z M204.2,108.7c-0.7-0.1-0.9,0.3-1.2,0.7
		c-0.3,0.3-0.8,0.5-0.5,0.9c0.1,0.1,0.5,0.3,0.8,0.3c0.5,0,0.8-0.3,0.8-0.8C204.1,109.5,204.1,109,204.2,108.7c0-0.1,0.3-0.1,0-0.3
		C204.2,108.4,204.2,108.6,204.2,108.7z M180.6,114.1c0.1,0,0.3,0.1,0.3,0.1c4.3-1.8,8.7-3.7,13.5-3.9c0.9,0,0.7-0.9,0.8-1.5
		c0.1-0.9-0.5-0.8-1.1-0.8c-3.2,0.1-6,1.4-9,2.3C183,111.1,181.6,112.2,180.6,114.1L180.6,114.1z M142.4,112.7
		c0.1,0.3,0.5,0.3,0.7,0.1c0.3-0.3-0.1-0.5-0.3-0.7c-0.7-1.5-1.8-2-3.3-2.4c-2-0.3-4.2-0.9-6.3-1.1c-2.3-0.1-4.4-0.7-6.7-0.1
		c-0.9,0.1-1.1,0.8-1.1,1.5c0,0.8,0.7,0.8,1.1,0.8C131.9,110.5,137.2,111.2,142.4,112.7z M113.4,145.4L113.4,145.4
		c1.2,3.2,2.8,6,5,8.4c4.3,4.8,7.9,10.1,13.3,14.1c1.1,0.9,0.8,1.2-0.1,1.8c-1.6,1.2-3.6,1.6-5.6,2c0.5,0.8,0.8,1.5,1.2,2
		c1.5,2.7,3.5,4.8,6.4,6.2c4.4,1.9,9.3,3.1,13.8,4.6c2.7,1.1,5.4,1.5,8.3,1.8c11.9,1.4,23.8,0,35.5-2.8c7-1.6,13.3-5.4,19.7-8.2
		c2-0.9,3.7-2.4,5.8-4.2c-1.9-0.3-2-1.1-1.4-2.5c4-7.6,8.3-15.1,11.4-23.2c1.8-4.4,3.6-9.1,5.2-13.7c0.8-2,0.1-4.3-1.5-5.6
		c-5.1-3.7-9.7-7.9-14.1-12.6c-0.9-1.1-1.5-1.1-2.4,0c-2.5,3.1-5.9,4.8-9.5,6c-1.8,0.5-2.4-0.1-1.9-1.9c0.3-1.2,0.8-2.3,0.9-3.5
		c0.1-0.8,1.1-1.6-0.1-2.3c-1.1-0.5-2.3-0.8-3.3,0.5c-0.8,0.9-1.5,1.6-2.4,2.4s-1.6,2.4-2.8,1.8c-1.4-0.7-0.1-2,0.1-3.1
		c0.5-1.9-0.1-1.9-1.8-1.8c-4.3,0.8-8.4,2.4-12.5,4.3c-2.7,1.4-2.7,1.2-2.7-1.6c0-0.3-0.1-0.7-0.1-0.9c-0.1-2.8-0.1-5.9-0.3-8.7
		c0-1.1,0-2,0-3.2c-0.1,1.1-0.9,1.9-0.7,3.1c-1.1,6.2-3.5,11.8-5.9,17.6c-1.4,3.2-3.1,6.2-5.2,8.7c-0.9,1.1-1.4,1.2-2.5,0.1
		c-5-4.6-7.1-10.8-10.3-16.5c-0.3-0.5-0.1-1.4-1.1-1.4c-0.5,0.9,0.1,2.5-1.5,2.5c-1.9,0-3.7-0.5-5.6-1.1c-6.6-2.3-13.4-3.7-20.4-2
		c-0.5,0.1-0.9,0-1.2-0.1c-2.5-1.5-5.4-0.9-8.2-0.5c-0.9,0.1-1.5,0.5-1.8,1.5c-1.5,3.9-3.5,7.6-5.6,11.2c-0.3,0.7-0.9,1.2-0.8,1.9
		c0.7,2.4,1.1,5,2,7.5c1.1-1.2,3.1-1.6,1.1-3.6c-0.7-0.7-1.8-1.4-0.9-2.3c0.9-0.9,1.4,0.8,2,1.1c0.7,0.3,1.1,1.4,2,0.7
		c1.2-0.9,0.1-1.5-0.1-2c-0.3-0.5-0.7-1.1,0-1.5c0.5-0.5,0.9,0.1,1.4,0.3c0.8,0.3,1.4,1.4,2.4,0.5c6.4-5,13.7-3.7,20.6-2.3
		c5.1,1.2,9,4.3,13,7.4c1.6,1.2,1.5,2.5-0.5,3.7c-1.8-2-3.7-4-6.8-5.1c1.1,2.8,0.8,5.8,1.5,8.3c0.9,2.8,0.7,5.1-0.7,7.6
		c-1.5,3.3-4.3,4.8-7.4,6.4c-0.5,0.1-0.9,0.1-1.4,0.3c-0.1,0-0.3,0-0.5,0c-3.3,0.1-6.4,0.7-9.5-0.8c-0.1-0.1-0.3-0.1-0.5-0.3
		c-0.1,0-0.3-0.1-0.3-0.1c-0.3-0.5-0.7-0.3-1.1-0.5l0,0c-1.4-1.8-3.5-2.8-4.3-5.1c-1.9-4.6-2.4-9.3-1.2-14.1
		c0.1-0.8,0.9-1.5,0.8-2.5c-0.3,0.1-0.5,0.1-0.5,0.1c-0.5,0.3-0.9,0.7-1.4,0.9c-3.2,2-5.4,4.6-3.9,8.8c0.3,0.8,0.7,1.9-1.1,1.8
		c-0.5,0,0,0.8,0.3,1.1C112.5,143.8,112.8,144.6,113.4,145.4z M183.8,109.2c3.2-0.9,6.3-2.4,9.5-2.4c1.8,0,2.3-0.8,2-2.4
		c-0.8-8.3-1.4-16.5-2-24.5c-1.2,5.6-2.7,11.1-4.4,16.3c-1.5,4.3-3.6,8.6-5.4,12.9c0,0.1-0.3,0.3-0.1,0.3
		C183.6,109.6,183.7,109.4,183.8,109.2z M194.8,184.4c-6.2,1.1-12.1,2.8-18.5,3.3c-7.4,0.7-14.6,0.9-22,0.1
		c-5.4-0.7-10.4-2.8-15.8-4.3c-0.5-0.1-1.2-0.8-1.4,0.1c-0.3,0.8,0.7,0.7,0.9,0.9c5,2.5,10.2,4.2,15.8,5c3.9,0.7,6.4,2.3,8.4,5.6
		c0.8,1.4,1.5,1.9,2.7,0.1c0.9-1.4,2-2.5,3.2-3.7c0.5-0.5,0.8-1.1,1.5-0.9c3.6,0.5,7-0.5,10.4-1.2
		C184.9,188.3,190.3,187.2,194.8,184.4c0.3,0,0.5,0,0.7-0.1l-0.1-0.1C195,184.1,194.9,184.3,194.8,184.4z M119.5,135
		c-0.9,4.6-0.5,9,2.5,13c3.1,4,7.4,5,12.1,4.3c4.6-0.7,8.6-3.7,9.7-8.2c1.1-3.7-1.5-7-5.2-6.8c-0.7,0-1.1,0.3-1.2,0.9
		c-0.1,1.9-1.1,3.6-1.5,5.4c-0.7,2.5-2.3,3.5-4.8,3.1c-3.6-0.7-6.2-4-6.2-8.4c2.7-0.3,3.9-1.6,4.2-4.6c0.1-2-1.2-3.2-2.8-3.9
		C123,128.2,119.7,130.7,119.5,135z M204.3,118.2c5.9-1.5,9.1-6.2,12.7-10.7c0.8,1.5,0,2-0.5,2.7c-0.8,0.8-0.7,1.4,0.1,2
		c6.2,6.3,12.2,12.5,20.4,16.1c0.7,0.3,1.5,0.5,1.1,1.2c-0.3,0.7-1.1,0.3-1.8,0c-1.1-0.3-1.9-1.2-3.2-1.1c0.5,1.4,0.3,2.7-0.1,4
		c-2.5,6.8-5.2,13.9-7.9,20.9c-0.1,0.5-0.5,0.9-0.8,1.4c-3.6,4.3-4.8,9.9-7.8,14.6c1.8,0,2.7-0.9,3.7-1.5c0.7-0.3,1.4-1.4,1.9-0.7
		c0.7,0.9-0.5,1.5-1.2,1.9c-2.4,1.8-4.6,3.9-6.8,6c-1.1,1.1-2.3,2-3.1,3.6c1.9-0.1,3.6-0.7,5.1-1.5c0.5-0.3,1.2-0.8,1.5-0.1
		c0.5,0.8-0.3,1.1-0.9,1.5c-1.8,1.2-3.9,1.5-6,1.8c-2.4,0.3-2.5,0.1-2.4-2.5c-3.5,1.5-6.7,3.2-10.1,4.6c4.4,2.7,4.4,2.7,7.1-1.1
		c0.5-0.7,0.8-1.5,1.6-1.5c1.1,0.1,0.8,1.2,1.1,1.9c1.4,3.5,1.4,3.6,3.9,0.9c0.5-0.7,1.2-1.5,1.8-0.5c0.9,1.6,1.6,0.9,2.7,0.3
		c2-1.2,4-3.1,6.3-3.6c1.9-0.5,3.5-1.4,5.1-2.4c10.4-7.4,18-17.3,25.5-27.5c3.5-4.8,6.2-10.1,8.6-15.4c3.2-7.1,5-14.6,6.2-22.3
		c0.7-4,0.9-8.4-0.1-12.2c-0.9-3.2-1.1-6.3-0.9-9.3c0.1-4.3,0-8.7-0.7-13c-1.9-14.4-7.6-27.1-18.1-37.1
		c-11.5-10.8-24.3-20.2-39.4-26.1c-7.4-2.8-14.6-6.2-22.3-7.8c-6.8-1.5-13.7-3.3-20.9-3.3c-7,0-13.5,2.8-20.4,3.9
		c-6.2,0.9-11.7,3.9-17.6,6.3c-7.9,3.3-15.4,7.4-22.4,12.1C96.9,30.7,88.6,36.9,82,45.3c-5.1,6.6-9.1,13.7-12.6,21
		c-3.5,7.5-5.4,15.3-6,23.6c-0.8,9.7,0.8,19.3,2.8,28.8c1.1,4.3,2.3,8.7,4.2,13.3c1.2-2,1.9-3.9,2.5-5.8c0.1-0.5,0.1-1.1,0.9-0.9
		c0.8,0.1,0.9,0.8,0.8,1.4c-0.5,1.6-0.3,3.5-0.1,5.1c1.5,11.8,5.8,22.7,12.6,32.2c1.5,2.3,3.3,4.4,5.9,6c0.1-0.8,0.1-1.4,0.3-1.8
		c0.1-0.8,0.1-1.9,1.1-2c1.1-0.3,1.4,0.9,1.8,1.5c5.6,6.8,12.1,12.5,20.1,16.3c0.5,0.3,1.2,0.5,1.5,0.8c1.8,2.4,4.4,2.4,7.1,3.2
		c-0.7-2-1.1-3.7-2-5.2c-0.3-0.5-1.1-0.7-0.8-1.4c0.3-0.7,1.2-0.5,1.8-0.5c1.9,0.1,3.7,0.5,5.8,0.7c-0.3-3.5-2.8-5.6-4.2-8.2
		c-0.7-1.2-1.1-2-2.5-1.9c-0.7,0-1.5-0.1-1.4-0.9c0.1-0.9,1.1-0.5,1.6-0.5c2.7,0.1,5.2-0.3,7.5-1.9c-12.7-10.7-21.4-23.7-24.7-40.6
		c-0.8,0.9-1.2,1.5-1.6,1.9c-2.3,3.1-4.6,5.9-8.3,7c-2.7,0.9-3.5,0.3-3.7-1.8c-0.1-0.9-0.5-1.8-0.7-2.7c-2.3-12.2-1.8-24.5-0.3-36.8
		c0.3-1.9,0.9-3.7,1.8-5.4c0.7-1.1,1.4-1.8,2.7-1.8c0.5,0,0.8,0.1,0.8,0.7c0.1,0.5-0.1,0.8-0.5,0.9c-2.7,0.9-3.1,3.3-3.3,5.4
		c-1.8,11.9-2,24.1,0,36.2c0.3,1.5,0,3.7,1.4,4.2c1.6,0.7,3.3-0.9,4.6-2c0.1-0.1,0.1-0.1,0.3-0.3c6.6-6.2,10.2-14.2,13.5-22.3
		c0.9-2.3,1.2-4-1.5-5.2c-0.3-0.1-0.5-0.3-0.7-0.7c-0.5-0.5-0.8-1.1-0.1-1.5c0.5-0.5,0.8,0,1.2,0.3c3.2,2.7,6.7,4.6,10.3,6.7
		c1.5,0.9,1.9,0.5,2-1.2c0.7-6,1.1-12.1,2.3-18.1c0.7-2.7,0.8-5.6,2.3-7.9c0.7-0.9,0.9-1.6,0.8-2.7c0-1.2,0-2.3,0.5-3.3
		c0.1-0.5,0.7-0.9,1.2-0.7c0.5,0.1,0.5,0.8,0.3,1.1c-0.7,1.2-0.5,2.4-0.3,3.6c0.5,7.6,2.4,15,6.7,21.4c2.7,3.9,5.6,7.8,9.5,11.1
		c-0.1-1.1-0.1-1.8-0.1-2.4c-0.8-4.8-1.8-9.5-0.3-14.4c0.1-0.5-0.1-1.4,0.7-1.4c0.9,0,0.8,0.9,0.9,1.5c0.5,4.8,1.8,9.3,4,13.7
		c2.4,4.8,5,9.4,7.4,14.1c0.9,1.6,2,3.1,3.3,4.3c0.9,1.1,1.6,1.1,2.4-0.1c2-2.7,3.3-5.9,4.8-9c3.6-8.3,6-16.6,6.3-25.6
		c0-1.9,0.1-3.7,0.3-5.8c0-0.7,0-1.2,0.8-1.2c0.7,0,0.7,0.7,0.7,1.2c0,0.3,0,0.7,0,0.9c0.5,6.8,0.5,13.9,0.7,20.9
		c0,1.1,0.1,1.9,0.3,3.5c3.2-5,5.2-9.9,7.4-14.7c3.2-7.8,5-15.9,6.3-24.1c0.1-0.8,0-1.9,1.1-1.8c1.1,0.1,0.7,1.2,0.8,1.9
		c0.7,5.4,1.2,10.7,1.5,16.1c0.5,7.1,1.8,14.5,0.5,21.9c-0.1,0.3-0.5,0.7-0.1,0.9c0.1,0.1,0.5-0.1,0.7-0.3c5.2-5,10.4-9.5,13.9-16.1
		c0.3-0.5,0.5-1.2,1.2-0.9c0.7,0.3,0.3,0.9,0.1,1.5c-0.9,1.9-2,3.7-3.5,5.4c-1.5,1.8-2.7,3.7-3.2,6.2
		C205.3,112.5,204.7,115.5,204.3,118.2C203.6,118.4,203.9,118.4,204.3,118.2z M207.4,226c-0.5,0.5-0.9,0.8-1.2,1.1
		c-2.8,2.7-6.3,4.6-9.9,6.4c-1.4,0.7-2.3,0.7-2.4-1.2c-0.1-1.5-0.3-3.2-0.5-4.6c-0.5-3.3-0.5-3.5-3.5-1.9c-0.8,0.3-1.4,0.8-2,1.1
		c-5.6,1.8-10.8,2-15.5-1.9c-0.5-0.5-1.6-0.7-0.9-1.5c0.7-0.8,1.1,0.3,1.5,0.7c1.5,1.1,3.1,2.4,5,2.7c6.7,1.1,12.6-0.8,16.8-6.3
		c3.1-4,3.3-8.8,2.4-13.8c-0.1-0.9-0.7-1.2-1.2-1.5c-3.2-1.6-5.1-4-6.2-7.4c-0.8-2.3-1.6-4.4-2.5-6.7c-0.3-0.8-0.7-1.5-1.8-1.2
		c-4.2,1.2-8.6,1.9-13,2.7c0.7,1.8,1.5,2.7,3.3,1.6c0.5-0.3,0.9-0.3,1.4-0.5c0.9-0.1,1.8,0,2.3,0.8c0.7,0.9-0.5,1.4-0.9,1.8
		c-2.4,2.3-2.4,2.3,0.5,4c0.1,0,0.3,0.1,0.3,0.1c1.5,1.1,1.5,1.6-0.1,2.5c-2.8,1.6-5.9,3.2-8.7,4.8c-1.4,0.9-2,1.8-1.8,3.5
		c0.3,1.4-0.5,1.5-1.5,1.5c-2.4-0.1-4.6-0.1-7,0c-1.4,0-1.9-0.3-1.6-1.8c0.3-1.4,0-2.5-1.4-3.6c-2.7-1.8-5.6-3.3-8.6-4.6
		c-1.2-0.7-1.6-1.2-0.3-2c1.1-0.7,1.8-1.5,2.8-2.3c0.9-0.7,0.9-1.1,0-1.8c-0.8-0.8-2.3-1.5-1.5-2.7s2-0.1,3.2-0.1h0.1
		c2.3,1.4,2.8-0.5,3.6-1.9c-4.2-0.9-8.4-1.6-12.2-3.2c-1.4-0.5-1.9,0-2.5,1.1c-1.2,2.3-2.4,4.4-2.7,7c-0.7,3.3-1.5,6.3-4.2,8.4
		c-0.3,0.3-0.5,0.8-0.7,1.1c-0.9,2.8-1.5,5.9-1.2,8.8c0.3,3.3,0.5,6.7,3.3,9c1.9,1.5,4.2,3.1,6.7,3.5c4.2,0.9,8.2,0.3,11.5-2.8
		c0.5-0.5,0.7-1.5,1.6-1.4c0,1.5,0,1.5-0.9,2.4c-3.7,3.6-10.1,4.4-15,2c-1.2-0.7-2.4-1.4-3.7-1.9c-0.5,2.4-0.8,4.8-1.1,7
		c-0.3,1.4-0.9,1.8-2.3,0.9c-2-1.4-3.9-3.2-6-4.8c-0.1,0.7-0.3,0.8-0.3,1.1c-1.5,5.9-1.1,11.9-2.4,17.8c-0.1,0.7,0.1,1.1,0.5,1.6
		c4,8.4,10.4,14.5,18,19.4c6.8,4.4,14.2,8.2,21.9,11.2c0.8,0.3,1.5,0.5,2.4,0.1c5.8-1.8,11.4-4.2,16.1-7.8
		c8.4-6.4,16.5-13.4,23.8-21c1.4-1.4,1.9-2.5,1.8-4.3c-0.7-4.8-0.9-9.7-0.7-14.5C208.1,230.1,208.2,228.2,207.4,226z M209,275.8
		c-1.1,0.7-2.3,1.2-3.3,1.8c-1.9,1.1-3.7,1.9-6,2c-0.9,0.1-1.8-0.3-1.5-1.5c0.1-1.1-0.9-2.8,1.2-2.8c2.8,0,5.2-1.5,7.8-2.4
		c1.4-0.7,1.9-1.5,1.9-2.8c0-3.2,0-6.4,0-9.5c0-2.7-0.1-5.6-0.1-8.3c0-0.3-0.1-0.8-0.3-0.9c-0.3-0.3-0.7,0-0.9,0.3
		c-3.6,4.2-7.9,7.4-11.9,11.1c-7.1,6.6-14.5,13-23.8,16.5c-1.1,0.5-1.2,1.1-0.9,1.9c1.5,7.6,2.5,15.3,4.3,22.9c0.9,4,0.9,4,5,3.6
		c5.9-0.8,11.1-5.2,11.9-10.7c0.9-5,0.9-5,6.2-5.1c0.7,0,1.4,0,1.9,0c0.8,0,0.9,0.1,0.9,1.1c-0.1,3.7,1.4,7.1,3.5,10.2
		c0.8,1.2,1.9,1.8,3.3,2.3c1.4,0.5,1.9,0.1,1.9-1.4c0.1-6-0.9-11.8-0.5-17.8c0.1-1.1-0.5-1.4-1.2-0.9c-1.9,1.1-4,1.2-6,2
		c-0.7,0.3-1.1,0.5-1.4-0.3c-0.9-2-0.1-3.5,1.9-4.2c1.2-0.5,2.4-0.9,3.6-1.4C208.4,280.4,210.1,279,209,275.8z M124.5,251.6
		c-1.4,6.7-1.2,13-1.1,19.4c0,0.7,0.1,1.2,0.8,1.5c2.3,1.6,4.6,3.3,7.4,3.6c2.5,0.3,1.4,1.9,1.4,2.8c0,1.5-1.5,0.9-2,0.7
		c-1.9-0.8-3.9-1.6-5.9-2.5c-0.5-0.1-1.2-0.7-1.2-0.1c-0.1,1.2-0.9,2.8,0.3,3.7c1.9,1.5,3.9,3.1,6.6,3.2c0.8,0,1.1,0.3,0.9,1.1
		c0,0.8,0,1.4,0,2c0.1,1.5-0.8,1.5-1.6,1.1c-1.4-0.8-2.7-1.5-4-2.4c-1.2-0.8-1.6-0.9-1.6,0.8c0.1,5.4,0.3,11,0.5,16.3
		c0,0.9,0.1,1.9,1.4,2.3c1.1,0.3,1.8-0.3,2.4-1.1c2.5-2.8,4.6-5.8,3.6-9.9c-0.3-1.4,0.3-2,1.9-1.8c1.4,0.1,2.7,0.3,4,0.3
		c1.8-0.1,2.4,0.5,2.5,2.4c0.5,5,1.4,9.9,6.6,12.5c1.2,0.7,2.3,1.2,3.5,1.6c1.6,0.8,3.5,0.9,5.4,0.7c1.2-0.3,1.9-0.9,2-2
		c0.3-2.4,0.5-4.8,0.9-7.1c1.1-6.3,2-12.7,3.2-19c0.1-1.1,0-1.4-0.9-1.6c-2.8-1.1-5.8-2.7-8.4-4c-7.9-3.9-15.4-8.4-21.3-15.1
		C129,257.4,126.5,254.9,124.5,251.6z M194,320.4c-5,0-9.5,0.8-14.1,1.6c-1.2,0.3-1.6,0.9-1.5,2c0.1,2.7,0.3,5.4,0.3,8.2
		c0,4.8,2,8.3,6.3,10.7c1.5,0.9,2.7,1.2,3.3-0.9c0.3-1.1,1.1-2,1.5-3.1c0.3-0.7,0.7-1.4,1.5-1.1c0.8,0.3,0.8,0.9,0.9,1.5
		c0.1,1.9,0.5,3.7,0.5,5.8c0,1.4,0.5,1.9,1.6,2c3.1,0.5,6,1.2,9,1.4c5.9,0.5,9.7-3.7,9.3-9.4c-0.3-3.6-0.1-7.4-1.9-10.8
		c-1.1-1.9-1.8-4-1.8-6.3c0-0.9-0.5-1.5-1.4-1.6c-1.2-0.1-2.5-0.5-3.7-0.5C200.5,319.9,197.2,320.7,194,320.4z M120.4,338.5
		c0.8-0.5,0.7-1.6,1.5-1.4c0.9,0.1,0.7,1.2,0.7,1.8c-0.1,3.1,1.1,5.4,3.7,6.7c1.5,0.8,3.1,1.4,4.6,1.5c3.7,0.3,7.1-0.9,10.7-1.5
		c1.4-0.3,2-1.2,2.3-2.7c0-1.8,0.3-3.6,0.5-5.6c0-0.7,0-1.5,0.7-1.6c0.8-0.3,1.1,0.7,1.4,1.1c0.7,1.1,1.1,2,1.6,3.3
		c0.5,0.9,0.8,1.4,1.8,0.5c1.4-1.4,2.8-2.8,4.4-3.9c0.9-0.7,1.4-1.6,1.4-3.1c-0.1-2.7,0.1-5.4,0-8.2c-0.1-1.6,1.1-3.9-0.3-4.8
		c-1.4-0.9-3.3-0.8-5.1-0.8c-7.6-0.1-15.1,1.1-22.7,0.8c-0.5,0-0.9-0.1-1.1,0.5c-0.5,2.8-2.7,4.4-3.9,7
		C120.4,331.5,119.5,334.8,120.4,338.5z M270.8,255.8c0-2-0.3-4-1.4-5.8c-2-3.7-5-7-7.4-10.7c-0.5-0.8-1.1-0.9-1.8-0.8
		c-2.8,0.5-5.9,0.5-8.4,1.8c-5.2,2.5-9.4,6.2-11.8,11.7c-0.8,1.6-0.7,2.7,0.7,3.9c1.3,1.3,2.7,2.3,3.1,4.2c0.8,5.6,5.2,7.9,10.3,5.6
		c1.5-0.8,2.5-0.7,3.5,0.8c1.4,2,3.3,3.3,5.8,2.8c2.8-0.5,5-2,6.2-5C270.6,261.7,270.4,258.8,270.8,255.8z M62.4,249.9
		c0.1,1.1,0.3,2,0.7,3.2c0.9,3.1,3.2,5,5.8,6.2c2,0.9,3.5-0.9,5.1-1.9c1.2-0.8,2.4-1.4,3.9-0.9c1.9,0.5,4,0.1,5.8-1.1
		c1.6-1.2,4-2,3.5-5.1c0-0.3,0.5-0.8,0.8-1.1c0.8-0.9,1.5-1.6,2.3-2.5c0.8-0.8,0.9-1.2,0-2.3c-2-2.8-5-4.6-7.4-6.8
		c-2.4-2.4-5.2-4.6-7.8-6.8c-0.8-0.7-1.2-0.7-2,0c-2.7,1.9-4.3,4.6-6,7.4C64.3,241.6,62.7,245.5,62.4,249.9z M208.6,319.1
		c0.3-3.3,0.5-6.7,0.8-10.2c0.1-1.4-0.3-2.3-1.8-2.4c-2.4-0.3-3.9-1.8-5.1-3.7c-1.2-1.9-1.9-4-2.4-6.3c-0.3-1.4-1.1-1.6-2.3-1.5
		c-1.1,0.1-2.3,0.3-3.3,0.5c-0.8,0.1-1.1,0.5-1.2,1.2c-1.4,6.6-5.6,10.2-11.7,11.9c-1.2,0.3-2.4,0.3-3.6,0.5
		c-0.9,0.1-1.5,0.3-0.9,1.5c1.4,2.8,1.4,6,1.1,9.1c-0.1,1.5,0.1,1.8,1.8,1.5C189.6,318.9,199.1,318.6,208.6,319.1z M156.9,310.4
		c-7.9,1.5-15.9-4.2-17.2-11.9c-0.7-3.5-0.7-3.3-4-3.5c-1.9,0-2.5,0.7-2.5,2.5c0,3.2-4,8.3-6.6,8.6c-1.4,0.1-1.5,0.8-1.2,1.6
		c0.5,2.3,0.3,4.3,0.1,6.6c-0.1,5.4-0.1,5.4,5.2,5.4c8.2,0,16.2-1.9,24.3-0.1c0.7,0.1,0.8-0.1,0.8-0.8
		C155.8,315.9,156.8,313.3,156.9,310.4z M231.7,207c0-0.8-0.7-1.1-0.9-1.4c-2.4-2.4-4.8-4.6-7-7c-4.3-5.1-9.9-8.6-15.9-11.4
		c-1.5-0.8-3.1-1.9-4.8-0.7c-0.5,0.3-0.9-0.1-1.4-0.5c-2.3-1.4-4.4-2.4-6.8-0.1c-0.1,0.1-0.3,0.1-0.5,0.1c-1.2,0.3-1.5,0.8-0.8,2
		c3.5,7,6.7,14.2,7.8,22.1c0.1,1.1,0.8,1.8,1.5,2.5c0.7,0.7,1.2,0.9,2,0.7c0.9-0.3,0.5-1.1,0.5-1.6c0.1-2.3,1.9-5.4,3.9-5.9
		c3.1-0.7,6-1.1,9-0.8c3.6,0.5,7,1.1,10.4,2.5C230.1,208.3,231,207.8,231.7,207z M128.5,204.8c2.3,0.5,2.3-0.9,2.4-2.3
		c0.1-5.6,1.8-10.4,4.6-15.3c0.3-0.7,1.4-1.4,0.8-1.8c-0.7-0.7-1.4-1.2-2.5-0.9c-2,0.3-4.3,0.7-6.4,1.1c-1.4,0.3-1.9,0.5-1.5,2
		c0.7,2.4,0.5,2.4-1.9,1.8c-1.8-0.3-3.3-1.1-5.2,0.1c-5.4,3.7-10.7,7.5-15.4,11.8c-0.8,0.7-0.8,1.2-0.5,1.9c0.3,0.9,0.8,1.2,1.6,1.2
		c2.3,0,4.3,0,6.6-0.1c5.6-0.5,11.2-0.9,15,4.6c0.7,0.9,1.6,1.4,2.7,0.7c1.1-0.9,1.4-1.9,0.9-3.2C129.6,206.1,129,205.6,128.5,204.8
		z M238.4,253.3c4.4-10.3,12.2-15.4,23-15.9c-1.1-4-1.8-4.3-5.4-3.2c-0.5,0.1-0.9,0.3-1.4,0.7c-3.2,1.2-3.2,1.2-5.4-1.5
		c-1.4-1.5-1.2-2.3,0.8-3.2c1.8-0.8,3.6-1.5,5.4-2c-4.8-0.5-9.3,0.5-13.3,3.5c-3.2,2.4-6.3,5.1-9.1,7.8c-1.5,1.5-2.3,3.9-1.2,5.8
		C233.3,248,235.8,250.6,238.4,253.3z M148.9,201.3c3.3,1.6,6.4,3.3,9.4,5.4c0.7,0.5,1.2,0.8,1.2,1.5c0,0.9-0.5,2.3,0.3,2.8
		s2,0.1,3.2,0.1c0.8,0,1.6-0.1,2.4,0c1.6,0.3,2.4-0.7,2.3-2c-0.1-1.6,0.8-2.3,1.9-2.8c3.1-1.5,5.9-3.2,8.8-4.8
		c-1.9-0.8-3.1-3.5-5.4-2c-1.1,0.7-2.7,1.2-3.3,0.3c-0.9-1.2,0.5-2.4,1.5-3.2c1.8-1.4,1.2-2.4,0-3.7c-0.5-0.5-0.9-0.9-1.5-1.4
		c-1.6,1.9-3.3,3.9-5,5.9c-0.9,1.2-1.6,1.1-2.4-0.1c-0.9-1.4-1.8-2.5-2.7-3.7c-0.5-0.7-0.9-1.9-2-0.8c-0.9,0.9-1.9,1.8-0.1,3.1
		c0.8,0.5,1.4,1.2,1.6,1.8c0.3,0.5,0.3,1.4,0.1,1.8c-0.3,0.8-1.1,0.5-1.6,0.3c-1.2-0.1-2.3-0.8-3.3-1.4c-0.7-0.3-1.2-0.8-1.6,0
		C151.4,199.5,150.1,200.2,148.9,201.3z M77.5,231.1c0.8,0.8,1.4,1.2,1.9,1.8c4.2,4.3,9.1,7.8,13,12.5c0.7,0.8,0.9,0.8,1.5-0.1
		c1.2-1.8,2.5-3.5,3.9-5c1.1-1.2,1.1-1.9,0-3.2c-5.1-5.4-10.1-11-16.3-15.1c-1.4-0.9-2.4-1.4-3.7,0c1.4,1.1,2.7,2.3,4,3.3
		c0.9,0.7,0.9,1.1,0.5,1.9C81.1,228.9,79.7,230.6,77.5,231.1z M251.4,226.4c-2.5-3.2-5.4-5.8-8.2-8.2c-0.7-0.7-1.2-0.5-1.6,0.1
		c-0.8,0.8-1.6,1.6-1.4,3.1c0.5,2.5-0.8,4.3-2.8,5.6c-3.7,2.4-6.4,5.4-8.2,9.7c-0.5,1.4-0.1,1.9,0.5,2.7c0.9,1.1,1.5-0.1,1.9-0.7
		C237.6,233.4,243.2,228.1,251.4,226.4z M140,108.4c-6.2-7.1-9.1-15.1-10.4-23.8c-2.3,7-3.2,14.1-3.7,21.3c0,0.7-0.3,1.1,0.8,1.1
		C130.9,106.8,135.2,107.3,140,108.4z M92.4,217.6c-0.1-0.5-0.1-1.1-0.3-1.5c-0.7-2.3-1.2-2.4-2.8-0.8c-1.8,1.6-3.5,3.5-5.1,5.1
		c-0.8,0.8-0.9,1.4,0,1.9c4.8,3.2,8.6,7.6,12.6,11.7c0.7,0.7,1.1,2,2.3,0.7c0.9-1.2,3.5-1.6,1.8-3.9c-2.4-3.1-5-5.9-8.7-7.4
		c-1.2-0.5-1.4-0.9-0.7-1.9C92.2,220.4,92.2,219,92.4,217.6z M198.9,204.9c0.3-1.1,0-1.6-0.3-2.4c-1.2-4.3-3.2-8.3-5.1-12.2
		c-1.4-2.8-1.5-2.8-4.3-1.8c-1.1,0.3-1.4,0.8-0.9,1.8c1.1,2.4,1.9,5,2.7,7.4C192.3,201.4,195.1,203.2,198.9,204.9z M132.1,205.5
		c1.2-1.1,1.9-1.9,2.8-2.7c1.2-1.2,2-2.5,2.4-4.4c0.3-3.2,1.5-6.2,3.2-9c0.3-0.7,1.6-1.5,0.3-2c-1.1-0.5-2.3-1.9-3.6,0.1
		c-2,3.5-3.6,7-4.3,11C132.3,200.4,132,202.8,132.1,205.5z M206.8,219.1c-1.1,0.9-1.5,2.4-2.8,3.1c-2.3,1.2-4.3,3.1-6.7,3.7
		s-2.8,2.3-2.3,4.4c0,0.3,0.1,0.7,0.1,0.9c0.1,1.1,0.7,1.1,1.4,0.8c2.8-1.4,5.4-3.1,7.9-4.8C207.2,225.1,208.2,222.7,206.8,219.1z
		 M127.7,222.7c-0.7,4.2,1.6,7.5,6.4,9.3c0.1-1.2,0.3-2.5,0.7-3.7c0-0.5,0.1-0.9-0.5-0.9C131.3,226.6,129.7,224.3,127.7,222.7z
		 M78.5,229.3c1.1-0.5,1.6-1.4,2.3-2.3s-0.5-1.1-0.8-1.5c-0.8-0.8-1.6-1.4-2.4-2c-0.5-0.5-1.1-0.9-1.6-0.3c-0.7,0.8-1.6,1.4-1.8,2.5
		C74.2,226.4,77.9,229.3,78.5,229.3z M258.1,231.4c-0.1-1.2-1.6-2.3-2.8-1.8c-1.2,0.5-2.3,0.8-3.3,1.2c-0.7,0.3-1.8,0.3-1.8,1.2
		c0,0.7,0.9,1.2,1.4,1.8c0.3,0.5,0.9,0.5,1.4,0.1c1.5-0.7,2.8-1.1,4.3-1.5C257.7,232.4,258.1,232.4,258.1,231.4z M147.7,102.6
		c0.7,3.2-1.2,6.8,3.3,9.4C149.9,108.4,148.3,105.5,147.7,102.6z M151.6,194.7c1.6,1.6,3.2,3.5,6,3.6C156,196.1,154,195,151.6,194.7
		z M171.2,198.5c2.4-0.5,4.2-1.9,5.9-3.6C174.5,195.1,172.6,196.2,171.2,198.5z M130.4,183.6c1.8-0.1,3.5,0,5.1-0.8
		c-1.5-1.1-2.8-1.8-4.6-2.3C131.1,181.7,131.3,182.5,130.4,183.6z M124.4,182.7c0.7,2-0.1,2.5,5.8,1.1
		C128.1,183.1,126.2,182.8,124.4,182.7z M115.1,108.2c-0.1,0.9-1.1,1.8-0.5,2.3c0.9,0.7,2-0.3,3.7-0.1
		C116.8,109.5,115.9,108.8,115.1,108.2z M205.1,184.8c1.2,0.3,1.9,0.5,3.1,0.8c-0.7-1.1-0.9-1.9-1.5-3.1
		C206.1,183.3,205.7,184,205.1,184.8z M209,178.1c-0.1,0-0.1,0.1-0.3,0.1l0.1,0.1C208.9,178.3,208.9,178.2,209,178.1
		C209.2,178.1,209.2,178.1,209,178.1z M210,177.7L210,177.7h-0.2C209.7,177.7,209.7,177.7,210,177.7L210,177.7z"/>
	<path class="st1" d="M196.3,112.8c1.4-7.4,0-14.5-0.5-21.9c-0.5-5.4-1.1-10.8-1.5-16.1c0-0.8,0.3-1.9-0.8-1.9
		c-1.1-0.1-0.9,1.1-1.1,1.8c-1.5,8.3-3.2,16.5-6.3,24.1c-2,5-4,9.9-7.4,14.7c-0.1-1.5-0.3-2.4-0.3-3.5c-0.1-6.8,0-13.9-0.7-20.9
		c0-0.3,0-0.7,0-0.9c0-0.5,0-1.1-0.7-1.2c-0.8,0-0.8,0.8-0.8,1.2c-0.1,1.9-0.1,3.7-0.3,5.8c-0.3,9-2.7,17.3-6.3,25.6
		c-1.4,3.2-2.7,6.3-4.8,9c-0.9,1.2-1.5,1.2-2.4,0.1c-1.2-1.4-2.4-2.7-3.3-4.3c-2.4-4.6-5.1-9.3-7.4-14.1c-2-4.2-3.5-8.8-4-13.7
		c0-0.7,0-1.5-0.9-1.5c-0.8,0-0.5,0.9-0.7,1.4c-1.5,4.8-0.5,9.5,0.3,14.4c0.1,0.8,0.1,1.4,0.1,2.4c-4-3.3-6.8-7-9.5-11.1
		c-4.3-6.4-6.3-13.8-6.7-21.4c0-1.2-0.1-2.4,0.3-3.6c0.1-0.5,0.3-0.9-0.3-1.1c-0.7-0.3-0.9,0.1-1.2,0.7c-0.7,1.1-0.7,2.3-0.5,3.3
		c0,1.1-0.1,1.8-0.8,2.7c-1.5,2.4-1.6,5.2-2.3,7.9c-1.4,6-1.8,11.9-2.3,18.1c-0.1,1.8-0.7,2-2,1.2c-3.6-2-7.1-4-10.3-6.7
		c-0.5-0.3-0.8-0.9-1.2-0.3c-0.5,0.5-0.3,1.1,0.1,1.5c0.1,0.1,0.5,0.5,0.7,0.7c2.7,1.1,2.4,3.1,1.5,5.2c-3.3,8.2-6.8,16.2-13.5,22.3
		c-0.1,0.1-0.1,0.1-0.3,0.3c-1.4,1.2-3.1,2.7-4.6,2c-1.5-0.5-1.2-2.7-1.4-4.2c-2-11.9-1.8-24.1,0-36.2c0.3-2,0.7-4.6,3.3-5.4
		c0.3-0.1,0.7-0.5,0.5-0.9c-0.1-0.3-0.5-0.7-0.8-0.7c-1.4,0-2,0.8-2.7,1.8c-0.9,1.6-1.6,3.5-1.8,5.4c-1.5,12.2-1.9,24.5,0.3,36.8
		c0.1,0.9,0.5,1.8,0.7,2.7c0.3,2,0.9,2.7,3.7,1.8c3.7-1.2,6-4,8.3-7c0.5-0.7,0.9-1.1,1.6-1.9c3.3,16.8,11.9,29.8,24.7,40.6
		c-2.3,1.5-4.8,1.9-7.5,1.9c-0.7,0-1.5-0.5-1.6,0.5c-0.1,1,0.8,1.1,1.4,0.9c1.5-0.1,1.9,0.8,2.5,1.9c1.4,2.7,3.7,4.8,4.2,8.2
		c-1.9-0.1-3.7-0.5-5.8-0.7c-0.7,0-1.4-0.1-1.8,0.5c-0.5,0.8,0.5,0.9,0.8,1.4c1.1,1.5,1.4,3.3,2,5.2c-2.7-0.9-5.4-0.8-7.1-3.2
		c-0.3-0.5-0.9-0.7-1.5-0.8c-7.9-3.9-14.5-9.5-20.1-16.3c-0.5-0.7-0.8-1.8-1.8-1.5c-0.9,0.3-0.9,1.4-1.1,2c-0.1,0.7-0.1,1.1-0.3,1.8
		c-2.5-1.5-4.3-3.7-5.9-6c-6.4-9.7-10.8-20.4-12.1-32.2c-0.1-1.6-0.3-3.5,0.1-5.1c0.1-0.7,0-1.2-0.8-1.4c-0.7-0.1-0.8,0.5-0.9,0.9
		c-0.7,1.9-1.4,3.6-2.5,5.8c-1.9-4.4-3.3-8.7-4.2-13.3c-2.3-9.4-3.6-19-2.8-28.8c0.7-8.3,2.5-16.1,6-23.6c3.5-7.5,7.5-14.5,12.6-21
		c6.6-8.4,14.7-14.6,23.4-20.6c7-5,14.5-8.8,22.4-12.1c5.8-2.4,11.4-5.4,17.6-6.3c6.8-1.1,13.4-3.9,20.4-3.9
		c7.1,0,13.9,1.8,20.9,3.3c7.8,1.6,15,5,22.3,7.8c15,5.9,27.7,15.3,39.4,26.1c10.7,9.9,16.2,22.7,18.1,37.1c0.7,4.3,0.8,8.7,0.7,13
		c-0.1,3.1,0.1,6.2,0.9,9.3c1.1,3.9,0.8,8.3,0.1,12.2c-1.1,7.6-3.1,15.1-6.2,22.3c-2.4,5.4-5.1,10.7-8.6,15.4
		c-7.5,10.2-15,20.2-25.5,27.5c-1.5,1.1-3.2,1.9-5.1,2.4c-2.3,0.7-4.2,2.3-6.3,3.6c-1.1,0.7-1.8,1.4-2.7-0.3
		c-0.7-1.2-1.4-0.1-1.8,0.5c-2.5,2.5-2.5,2.5-3.9-0.9c-0.3-0.7,0-1.8-1.1-1.9c-0.9-0.1-1.2,0.9-1.6,1.5c-2.7,3.9-2.7,3.9-7.1,1.1
		c3.5-1.5,6.7-3.2,10.1-4.6c-0.1,2.5,0,2.8,2.4,2.5c2-0.3,4.2-0.7,6-1.8c0.7-0.3,1.2-0.8,0.9-1.5c-0.3-0.7-1.1-0.1-1.5,0.1
		c-1.5,0.9-3.2,1.4-5.1,1.5c0.8-1.6,1.9-2.5,3.1-3.6c2.3-2,4.4-4.2,6.8-6c0.7-0.5,1.8-1.1,1.2-1.9c-0.7-0.8-1.4,0.1-1.9,0.7
		c-1.1,0.7-1.9,1.6-3.7,1.5c3.2-4.8,4.2-10.3,7.8-14.6c0.3-0.3,0.7-0.8,0.8-1.4c2.7-6.8,5.2-13.9,7.9-20.9c0.5-1.2,0.7-2.5,0.1-4
		c1.4-0.1,2,0.8,3.2,1.1c0.7,0.1,1.4,0.7,1.8,0c0.5-0.8-0.5-1.1-1.1-1.2c-8.2-3.7-14.2-9.7-20.4-16.1c-0.8-0.8-0.8-1.4-0.1-2
		c0.5-0.7,1.2-1.2,0.5-2.7c-3.6,4.4-6.8,9.1-12.7,10.7c-0.1-0.1-0.3-0.3-0.5-0.5c0.7-2.8,1.2-5.8,1.6-8.6c0.3-2.4,1.6-4.3,3.2-6.2
		c1.4-1.6,2.5-3.5,3.5-5.4c0.1-0.5,0.5-1.2-0.1-1.5c-0.7-0.3-0.9,0.5-1.2,0.9c-3.5,6.4-8.8,11.1-13.9,16.1
		C196.6,113.1,196.4,113,196.3,112.8z M115.2,38.9c-0.9,0.1-1.6,0.3-2.3,0.3c-8.8,0.5-16.8,3.6-24.3,7.9c-2,1.2-4,2.7-5.9,4.3
		c-3.3,3.1-4.4,6.6-3.7,11c0.9,5.6,4.6,9,9,11.8c0.7,0.3,1.5,0.7,1.9,0.1c2.3-1.9,5.1-3.5,7.1-5.6c6.6-6.6,13.3-13.3,19.2-20.4
		c1.5-1.8,3.1-3.6,4.3-5.6c0.8-1.1,1.4-2.4-0.7-3.1C118.6,39.4,116.8,39.2,115.2,38.9z M218.4,39.4c-0.9,0.1-1.8,0.1-2.8,0.5
		c-1.5,0.3-2,1.1-1.2,2.7c2.8,5.4,6,10.8,9.7,15.5c4.3,5.4,8.3,11,12.7,16.2c3.5,3.9,8.2,2.7,10.8,0.7c4.4-3.5,5.9-10.8,3.1-15.8
		c-2.7-4.4-6.3-8.4-10.7-11.4C233.7,43.3,226.5,40.2,218.4,39.4z"/>
	<path class="st2" d="M150.2,136.2c1.9-1.2,2-2.5,0.5-3.7c-4-3.1-7.9-6.2-13-7.4c-7.1-1.6-14.2-2.7-20.6,2.3
		c-1.1,0.9-1.6-0.1-2.4-0.5c-0.5-0.1-0.9-0.7-1.4-0.3c-0.7,0.5-0.1,1.1,0,1.5c0.3,0.7,1.4,1.2,0.1,2c-1.1,0.8-1.5-0.3-2-0.7
		c-0.8-0.3-1.2-1.9-2-1.1c-0.9,0.9,0.5,1.6,0.9,2.3c1.9,1.8,0,2.4-1.1,3.6c-1.1-2.5-1.5-5.1-2-7.5c-0.1-0.8,0.3-1.4,0.8-1.9
		c2-3.6,4-7.4,5.6-11.2c0.3-0.9,0.9-1.4,1.8-1.5c2.7-0.5,5.4-0.9,8.2,0.5c0.5,0.1,0.8,0.3,1.2,0.1c7-1.6,13.8-0.1,20.4,2
		c1.8,0.7,3.7,1.1,5.6,1.1c1.6,0,1.1-1.6,1.5-2.5c0.9,0,0.8,0.9,1.1,1.4c3.2,5.8,5.4,11.8,10.3,16.5c1.1,1.1,1.6,0.9,2.5-0.1
		c2.3-2.5,4-5.6,5.2-8.7c2.4-5.8,4.8-11.4,5.9-17.6c0.1,0,0.5,0,0.7,0.1c0.1,2.8,0.1,5.9,0.3,8.7c0,0.3,0.1,0.7,0.1,0.9
		c0,2.8,0,2.8,2.7,1.6c3.9-1.9,7.9-3.6,12.5-4.3c1.6-0.3,2.3-0.1,1.8,1.8c-0.1,0.9-1.5,2.4-0.1,3.1c1.2,0.7,1.9-1.1,2.8-1.8
		c0.9-0.8,1.6-1.5,2.4-2.4c1.1-1.2,2.3-0.9,3.3-0.5c1.2,0.5,0.1,1.5,0.1,2.3c-0.1,1.2-0.7,2.4-0.9,3.5c-0.5,1.8,0.1,2.4,1.9,1.9
		c3.7-1.1,7-2.8,9.5-6c0.9-1.1,1.4-1.1,2.4,0c4.3,4.6,9,8.8,14.1,12.6c1.6,1.2,2.3,3.5,1.5,5.6c-1.6,4.6-3.3,9.1-5.2,13.7
		c-3.3,7.9-7.4,15.5-11.4,23.2c-0.8,1.5-0.7,2.3,1.4,2.5c-1.9,1.8-3.5,3.2-5.8,4.2c-6.6,2.8-12.7,6.4-19.7,8.2
		c-11.7,2.8-23.6,4.2-35.5,2.8c-2.8-0.3-5.8-0.8-8.3-1.8c-4.4-1.6-9.3-2.7-13.8-4.6c-3.1-1.4-4.8-3.5-6.4-6.2
		c-0.5-0.7-0.8-1.4-1.2-2c1.9-0.5,3.9-1.1,5.6-2c0.9-0.7,1.2-1.1,0.1-1.8c-5.1-3.9-8.8-9.3-13.3-14.1c-2-2.4-3.7-5.2-5-8.4
		c1.1-0.5,1.4,0.5,1.8,0.9c2.5,2.3,4.8,5.1,8.6,5.8l0,0c0.1,0.5,0.7,0.3,1.1,0.5c0.1,0,0.3,0.1,0.3,0.1c0.1,0.1,0.3,0.1,0.5,0.3
		c3.2,1.4,6.3,0.9,9.5,0.8c0.1,0.3,0.3,0.3,0.5,0c0.5-0.1,0.9-0.1,1.4-0.3c2.3,0.8,3.9-0.7,5.6-1.8
		C147.9,147.9,149.4,142.3,150.2,136.2z M209.2,152.8L209.2,152.8c1.1,0.3,2-0.1,3.2-0.8c3.9-2.7,6.6-6.3,9.3-10.1
		c0.9-1.2,1.6-2.5,2.5-3.6c2.5-3.2,2.5-3.1,0.3-6.4c-0.1-0.1-0.1-0.3-0.3-0.5c-0.8-0.8-0.9-1.5,0.3-2c0.5-0.3,1.2-0.8,0.7-1.5
		c-0.5-0.7-1.1,0-1.5,0.3c-0.7,0.5-1.1,1.2-1.9,0.1c-0.9-0.9,0.1-1.2,0.5-1.6c0.4-0.5,1.1-0.8,0.5-1.4c-0.5-0.7-1.1,0-1.5,0.5
		c-0.9,1.1-1.5,0.7-2.5,0.1c-3.1-1.6-6-3.2-9.4-3.5c-4.6-0.5-9,0.3-13.4,1.9c-4,1.6-7.8,3.7-11,7.1c-0.9,1.1-0.8,2.3-0.8,3.3
		c0,0.8,0.8,0.5,1.2,0.5c0.5,3.5,1.1,6.7,1.9,10.1c0.8,2.4,1.9,4.4,4.6,5.2c0.8,1.1,1.4,1.8,2.5,2.4c4.4,1.8,9.1,1.6,13.8,0.7
		C208.5,153.2,209,153.2,209.2,152.8z M172.6,172.6c-3.6-0.1-7.4,0-11,0C165.2,174.8,168.8,174.1,172.6,172.6z"/>
	<path class="st3" d="M207.4,226c0.9,1.9,0.8,4,0.7,6c-0.3,5,0,9.7,0.7,14.5c0.1,1.9-0.5,3.1-1.8,4.3c-7.5,7.6-15.5,14.5-23.8,21
		c-4.6,3.6-10.3,6-16.1,7.8c-0.9,0.3-1.6,0.1-2.4-0.1c-7.6-3.1-15-6.7-21.9-11.2c-7.5-5-14.1-11.1-18-19.4c-0.3-0.5-0.7-1.1-0.5-1.6
		c1.4-5.9,0.9-11.9,2.4-17.8c0-0.3,0.1-0.7,0.3-1.1c2,1.6,3.9,3.5,6,4.8c1.4,0.9,1.9,0.7,2.3-0.9c0.5-2.3,0.8-4.6,1.1-7
		c1.4,0.8,2.5,1.4,3.7,1.9c5.1,2.4,11.2,1.5,15-2c0.9-0.9,0.9-0.9,0.9-2.4c-1.1-0.1-1.1,0.9-1.6,1.4c-3.3,3.1-7.4,3.6-11.5,2.8
		c-2.5-0.5-4.8-1.9-6.7-3.5c-3.1-2.3-3.2-5.9-3.3-9c-0.3-3.1,0.5-5.9,1.2-8.8c0.1-0.5,0.3-0.9,0.7-1.1c2.7-2,3.7-5.1,4.2-8.4
		c0.5-2.5,1.5-4.8,2.7-7c0.7-1.1,1.1-1.5,2.5-1.1c3.9,1.5,7.9,2.3,12.2,3.2c-0.8,1.5-1.4,3.3-3.6,1.9h-0.1c-1.1,0-2.4-1.1-3.2,0.1
		c-0.8,1.2,0.8,1.9,1.5,2.7c0.9,0.8,0.8,1.1,0,1.8c-0.9,0.8-1.8,1.6-2.8,2.3c-1.5,0.9-1.1,1.5,0.3,2c2.8,1.5,5.9,3.1,8.6,4.6
		c1.5,0.9,1.6,2,1.4,3.6c-0.3,1.5,0.3,1.9,1.6,1.8c2.4,0,4.6,0,7,0c1.2,0,1.8,0,1.5-1.5c-0.3-1.5,0.5-2.5,1.8-3.5
		c2.8-1.8,5.9-3.3,8.7-4.8c1.6-0.9,1.6-1.5,0.1-2.5c-0.1-0.1-0.3-0.1-0.3-0.1c-2.8-1.8-2.8-1.8-0.5-4c0.5-0.5,1.5-0.9,0.9-1.8
		c-0.5-0.9-1.4-0.9-2.3-0.8c-0.5,0.1-1.1,0.1-1.4,0.5c-1.8,1.2-2.7,0.1-3.3-1.6c4.3-0.8,8.7-1.6,13-2.7c1.2-0.3,1.5,0.5,1.8,1.2
		c0.9,2.3,1.8,4.4,2.5,6.7c1.1,3.3,3.1,5.9,6.2,7.4c0.7,0.3,1.1,0.8,1.2,1.5c0.9,5,0.5,9.7-2.4,13.8c-4,5.6-10.1,7.4-16.8,6.3
		c-1.9-0.3-3.5-1.6-5-2.7c-0.5-0.3-0.8-1.4-1.5-0.7c-0.8,0.9,0.5,1.2,0.9,1.5c4.8,4.2,10.1,3.9,15.5,1.9c0.8-0.3,1.4-0.7,2-1.1
		c3.1-1.4,3.1-1.4,3.5,1.9c0.1,1.5,0.5,3.2,0.5,4.6c0.1,1.8,1.2,1.8,2.4,1.2c3.6-1.6,7-3.7,9.9-6.4
		C206.6,226.8,206.9,226.5,207.4,226z M164.1,262.9c0,1.1,0.1,3.1,0.3,4.8c0,0.5,0.1,0.9,0.8,0.8c0.5-0.1,0.5-0.5,0.3-0.9
		c-0.8-4.4,0-9-0.7-13.5c-0.3-1.9-0.7-3.7-0.7-5.8c0-2.4-0.9-5.2,1.9-7c0.5-0.3,0.8-1.1,0.9-1.6c0.3-2,1.5-3.7,2-5.8
		c1.4-4.2,0.8-6.7-2-8.4c-2.5-1.4-6.2-1.4-7.8,0.1c-1.8,1.5-2.8,6.2-1.9,8.6c0.3,0.9,0.8,1.8,1.6,2c1.1,0.5,0.9,0.9,0.8,1.8
		c-0.5,1.9,0.3,3.5,2,4.3c0.5,0.3,1.2,0.1,1.2,1.2C162.7,249.9,164.3,256.1,164.1,262.9z M188.8,237.5c0-0.1,0-0.1,0-0.3
		c-3.3,0-6.4,0-9.7,0c-1.8,0-3.1,0.8-3.3,2.7c-0.3,1.6-0.7,3.2-0.8,4.8c-0.3,2.5,0.5,3.3,3.1,2.7c3.7-0.9,7.4-2,11-3.2
		c3.5-1.1,7-2,10.2-4c0.7-0.5,1.2-0.9,1.1-1.6c-0.1-0.9-1.1-0.8-1.6-0.8C195.4,237.5,192.1,237.5,188.8,237.5z M134,238.4
		c-1.2,0-2.5,0-3.7,0c-0.5,0-0.9,0-1.1,0.5c-0.2,0.5,0.3,0.8,0.7,0.9c0.8,0.7,1.5,1.2,2.4,1.8c5.8,3.7,11.9,5.9,19,5.6
		c0.8,0,1.6,0.1,1.6-1.1c0-2,0-4,0-6.2c0-0.5,0.1-1.2-0.8-1.2c-1.1,0-2.3-0.3-3.3-0.3C143.8,237.7,139,238,134,238.4z M169.7,218.1
		c0-4,1.1-4.2-3.9-4.2c-1.6,0-2,0.8-2,2c0,1.1,0,1.9,0,3.1c0,2.8,0.1,3.1,2.8,2.5C169.7,221.3,169.7,221.3,169.7,218.1z
		 M162.5,217.5c0-3.7,0-3.7-3.7-3.5c-1.6,0.1-2.3,0.5-2,2.3c0.1,1.2,0,2.5,0,3.7c-0.1,1.2,0.7,1.6,1.5,1.8c3.7,0.7,4.3,0,4.3-3.7
		C162.5,218,162.5,217.9,162.5,217.5z"/>
	<path class="st3" d="M209,275.8c1.1,3.1-0.7,4.4-2.8,5.6c-1.2,0.7-2.4,1.1-3.6,1.4c-2.3,0.8-2.8,2-1.9,4.2c0.3,0.8,0.8,0.7,1.4,0.3
		c1.9-0.9,4-1.1,6-2c0.9-0.5,1.4-0.1,1.2,0.9c-0.5,6,0.5,11.8,0.5,17.8c0,1.5-0.7,1.8-1.9,1.4c-1.4-0.5-2.4-1.1-3.3-2.3
		c-2-3.2-3.5-6.4-3.5-10.2c0-0.8-0.1-1.1-0.9-1.1c-0.7,0-1.4,0-1.9,0c-5.1,0.1-5.1,0.1-6.2,5.1c-1.1,5.4-6.2,10.1-11.9,10.7
		c-4,0.5-4,0.5-5-3.6c-1.8-7.6-2.7-15.3-4.3-22.9c-0.1-0.9-0.1-1.6,0.9-1.9c9.4-3.5,16.6-9.9,23.8-16.5c4-3.7,8.4-6.8,11.9-11.1
		c0.1-0.3,0.7-0.7,0.9-0.3c0.1,0.1,0.3,0.7,0.3,0.9c0.1,2.7,0.1,5.6,0.1,8.3c0,3.2,0,6.4,0,9.5c0,1.5-0.7,2.4-1.9,2.8
		c-2.5,1.1-5,2.4-7.8,2.4c-1.9,0-0.9,1.8-1.2,2.8c-0.1,1.2,0.7,1.5,1.5,1.5c2-0.1,4-1.1,6-2C206.8,277,207.9,276.5,209,275.8z"/>
	<path class="st3" d="M124.5,251.6c1.9,3.5,4.6,6,6.8,8.7c5.9,6.7,13.5,11.1,21.3,15.1c2.8,1.4,5.6,2.8,8.4,4
		c0.9,0.3,1.1,0.7,0.9,1.6c-1.2,6.3-2.3,12.6-3.2,19c-0.5,2.4-0.7,4.8-0.9,7.1c-0.1,1.4-0.9,1.9-2,2c-1.9,0.5-3.6,0.1-5.4-0.7
		c-1.2-0.7-2.3-1.2-3.5-1.6c-5.2-2.5-6.2-7.5-6.6-12.5c-0.1-1.9-0.8-2.5-2.5-2.4c-1.4,0.1-2.7,0-4-0.3c-1.6-0.3-2.3,0.5-1.9,1.8
		c1.1,4.2-1.1,7-3.6,9.9c-0.7,0.8-1.4,1.4-2.4,1.1c-1.1-0.3-1.2-1.2-1.4-2.3c-0.1-5.4-0.3-11-0.5-16.3c0-1.6,0.5-1.6,1.6-0.8
		s2.5,1.6,4,2.4c1.1,0.7,1.8,0.5,1.6-1.1c0-0.8,0-1.4,0-2s-0.1-0.9-0.9-1.1c-2.5-0.1-4.6-1.6-6.6-3.2c-1.2-1.1-0.7-2.5-0.3-3.7
		c0-0.5,0.8,0,1.2,0.1c1.9,0.9,3.9,1.8,5.9,2.5c0.8,0.3,2,0.9,2-0.7c0-0.9,1.4-2.5-1.4-2.8c-2.7-0.3-5.1-2-7.4-3.6
		c-0.5-0.3-0.8-0.9-0.8-1.5C123.4,264.7,123.3,258.4,124.5,251.6z"/>
	<path class="st3" d="M194,320.4c3.1,0.3,6.3-0.7,9.7-0.5c1.4,0,2.5,0.3,3.7,0.5c0.9,0.1,1.4,0.7,1.4,1.6c0,2.3,0.8,4.3,1.8,6.3
		c1.8,3.5,1.6,7.1,1.9,10.8c0.5,5.8-3.5,9.9-9.3,9.4c-3.1-0.3-6-0.9-9-1.4c-1.2-0.1-1.8-0.8-1.6-2c0-1.9-0.3-3.7-0.5-5.8
		c0-0.8-0.1-1.4-0.9-1.5c-1.1-0.3-1.2,0.5-1.5,1.1c-0.7,0.9-1.2,1.9-1.5,3.1c-0.7,2-1.8,1.8-3.3,0.9c-4-2.4-6.3-5.9-6.3-10.7
		c0-2.7-0.1-5.4-0.3-8.2c0-1.2,0.3-1.8,1.5-2C184.6,321.1,189.1,320.4,194,320.4z"/>
	<path class="st3" d="M120.4,338.5c-0.9-3.7,0-7,1.6-10.3c1.2-2.4,3.5-4.2,3.9-7c0.1-0.7,0.7-0.5,1.1-0.5c7.6,0.1,15.1-1.1,22.7-0.8
		c1.8,0,3.9-0.1,5.1,0.8c1.4,1.1,0.3,3.2,0.3,4.8c0.1,2.7,0,5.4,0,8.2c0,1.4-0.3,2.3-1.4,3.1c-1.6,1.2-3.1,2.5-4.4,3.9
		c-1.1,1.1-1.4,0.5-1.8-0.5c-0.5-1.1-1.1-2.3-1.6-3.3c-0.3-0.5-0.5-1.4-1.4-1.1c-0.8,0.3-0.7,1.1-0.7,1.6c-0.1,1.8-0.5,3.6-0.5,5.6
		c0,1.5-0.9,2.4-2.3,2.7c-3.5,0.7-7,1.8-10.7,1.5c-1.6-0.1-3.2-0.7-4.6-1.5c-2.7-1.5-3.9-3.7-3.7-6.7c0-0.8,0.3-1.6-0.7-1.8
		C121,336.9,121.1,338.1,120.4,338.5z"/>
	<path class="st3" d="M270.8,255.8c-0.5,2.8-0.5,6-1.6,9c-1.2,2.8-3.3,4.4-6.2,5c-2.4,0.5-4.3-0.9-5.8-2.8c-0.9-1.4-1.9-1.5-3.5-0.8
		c-5,2.4-9.5-0.1-10.3-5.6c-0.3-1.9-1.8-3.1-3.1-4.2c-1.2-1.2-1.4-2.3-0.7-3.9c2.4-5.4,6.6-9.1,11.8-11.7c2.7-1.2,5.6-1.4,8.4-1.8
		c0.8-0.1,1.4,0,1.8,0.8c2.4,3.6,5.2,6.8,7.4,10.7C270.6,252,270.8,253.8,270.8,255.8z"/>
	<path class="st3" d="M62.4,249.9c0.3-4.4,1.9-8.4,4.2-11.9c1.6-2.7,3.3-5.4,6-7.4c0.9-0.7,1.4-0.7,2,0c2.5,2.3,5.4,4.4,7.8,6.8
		s5.2,4.2,7.4,6.8c0.8,1.1,0.7,1.5,0,2.3c-0.8,0.9-1.5,1.6-2.3,2.5c-0.3,0.3-0.8,0.8-0.8,1.1c0.7,2.8-1.8,3.7-3.5,5.1
		s-3.6,1.5-5.8,1.1c-1.5-0.3-2.7,0.1-3.9,0.9c-1.5,1.1-3.1,2.8-5.1,1.9c-2.7-1.2-4.8-3.2-5.8-6.2C62.7,252.1,62.6,251.1,62.4,249.9z
		"/>
	<path class="st3" d="M208.6,319.1c-9.7-0.5-19.3-0.3-28.8,1.9c-1.5,0.3-1.9,0-1.8-1.5c0.3-3.2,0.3-6.2-1.1-9.1
		c-0.5-1.1,0-1.4,0.9-1.5c1.2-0.1,2.4-0.1,3.6-0.5c6.3-1.8,10.4-5.4,11.7-11.9c0.1-0.8,0.5-1.2,1.2-1.2c1.1-0.1,2.3-0.3,3.3-0.5
		c1.2-0.1,1.9,0.1,2.3,1.5c0.5,2.3,1.2,4.3,2.4,6.3c1.2,1.9,2.7,3.5,5.1,3.7c1.5,0.1,1.9,1.1,1.8,2.4
		C209.2,312.5,209,315.9,208.6,319.1z"/>
	<path class="st3" d="M156.9,310.4c-0.1,3.1-1.4,5.6-1.4,8.4c0,0.5-0.1,0.8-0.8,0.8c-8.2-1.8-16.2,0.1-24.3,0.1
		c-5.4,0-5.4,0-5.2-5.4c0.1-2.3,0.1-4.3-0.1-6.6c-0.1-0.9-0.1-1.6,1.2-1.6c2.5-0.1,6.6-5.4,6.6-8.6c0-1.9,0.8-2.5,2.5-2.5
		c3.5,0.1,3.6,0,4,3.5C141.1,306.2,149.2,311.8,156.9,310.4z"/>
	<path class="st3" d="M231.7,207c-0.7,0.8-1.6,1.4-2.7,0.9c-3.3-1.5-6.8-2-10.4-2.5c-3.1-0.5-6,0-9,0.8c-1.9,0.5-3.7,3.6-3.9,5.9
		c0,0.7,0.3,1.4-0.5,1.6c-0.9,0.3-1.5,0-2-0.7c-0.8-0.8-1.4-1.5-1.5-2.5c-1.1-7.9-4.3-15.1-7.8-22.1c-0.7-1.4-0.5-1.8,0.8-2
		c0.1,0,0.3,0,0.5-0.1c2.3-2.3,4.4-1.4,6.8,0.1c0.5,0.3,0.9,0.8,1.4,0.5c1.8-1.4,3.5-0.1,4.8,0.7c5.9,2.8,11.4,6.4,15.9,11.4
		c2.3,2.5,4.6,4.8,7,7C231.2,206.1,231.6,206.2,231.7,207z M210,199c0,2,2.3,4.2,4.4,4.2c2.1,0,4.4-2.3,4.6-4.4c0-2.4-1.9-4-4.8-4
		C211.7,194.7,210,196.5,210,199z"/>
	<path class="st3" d="M128.5,204.8c0.7,0.9,1.1,1.4,1.2,1.8c0.5,1.2,0.1,2.4-0.9,3.2c-1.1,0.9-2.3,0.3-2.7-0.7
		c-3.7-5.6-9.4-5.1-15-4.6c-2.3,0.1-4.3,0.1-6.6,0.1c-0.9,0-1.5-0.1-1.6-1.2c-0.1-0.9-0.3-1.4,0.5-1.9c5-4.3,10.2-8.2,15.4-11.8
		c1.8-1.4,3.5-0.7,5.2-0.1c2.5,0.7,2.7,0.5,1.9-1.8c-0.5-1.6,0.1-1.8,1.5-2c2-0.5,4.3-0.8,6.4-1.1c1.2-0.1,1.9,0.5,2.5,0.9
		c0.5,0.5-0.5,1.2-0.8,1.8c-2.8,4.6-4.4,9.7-4.6,15.3C130.9,203.8,130.9,205.3,128.5,204.8z M119.1,202.8c2.3,0,5.1-2.7,5.1-4.8
		c0-1.8-2.8-4.4-5-4.4c-2.4,0-4.4,2.7-4.4,5.6C115.1,200.6,117.4,202.8,119.1,202.8z"/>
	<path class="st3" d="M238.4,253.3c-2.4-2.8-5-5.2-6.6-8.3c-1.1-1.9-0.3-4.2,1.2-5.8c2.8-2.8,6-5.4,9.1-7.8
		c3.9-3.1,8.4-3.9,13.3-3.5c-1.8,0.8-3.6,1.4-5.4,2c-1.9,0.9-2,1.5-0.8,3.2c2.3,2.7,2.3,2.7,5.4,1.5c0.5-0.1,0.9-0.5,1.4-0.7
		c3.6-1.2,4.3-0.9,5.4,3.2C250.4,237.9,242.8,243,238.4,253.3z"/>
	<path class="st3" d="M148.9,201.3c1.1-1.2,2.4-1.6,3.3-2.8c0.5-0.8,1.1-0.3,1.6,0c1.1,0.7,2,1.2,3.3,1.4c0.7,0.1,1.4,0.5,1.6-0.3
		c0.1-0.5,0.1-1.4-0.1-1.8c-0.5-0.8-1.1-1.4-1.6-1.8c-1.8-1.2-0.7-2,0.1-3.1c1.2-1.2,1.6,0.1,2,0.8c1.1,1.2,1.9,2.5,2.7,3.7
		c0.8,1.2,1.5,1.4,2.4,0.1c1.6-1.9,3.3-3.9,5-5.9c0.5,0.5,1.1,0.9,1.5,1.4c1.2,1.2,1.8,2.3,0,3.7c-0.9,0.8-2.3,1.9-1.5,3.2
		c0.8,1.1,2.3,0.3,3.3-0.3c2.5-1.4,3.5,1.4,5.4,2c-3.1,1.6-5.9,3.2-8.8,4.8c-1.2,0.7-2,1.2-1.9,2.8c0.1,1.5-0.7,2.4-2.3,2
		c-0.8-0.1-1.5,0-2.4,0c-1.1,0-2.3,0.3-3.2-0.1c-0.8-0.5-0.3-1.8-0.3-2.8c0-0.9-0.7-1.2-1.2-1.5
		C155.6,204.5,152.2,202.9,148.9,201.3z"/>
	<path class="st4" d="M125.1,138.3c0,4.4,2.5,7.8,6.2,8.4c2.5,0.5,4.2-0.5,4.8-3.1c0.5-1.8,1.4-3.6,1.5-5.4c0-0.8,0.5-0.9,1.2-0.9
		c3.7,0,6.3,3.2,5.2,6.8c-1.2,4.3-5.1,7.6-9.7,8.2c-4.8,0.7-9-0.3-12.1-4.3c-3.1-3.9-3.5-8.3-2.5-13
		C120.7,137,122.7,138.2,125.1,138.3z"/>
	<path class="st3" d="M77.5,231.1c2.4-0.7,3.6-2.3,4.8-4c0.7-0.9,0.5-1.4-0.5-1.9c-1.4-1.1-2.7-2.3-4-3.3c1.4-1.4,2.4-0.9,3.7,0
		c6.3,4.2,11.2,9.5,16.3,15.1c1.1,1.2,1.2,2,0,3.2c-1.5,1.5-2.8,3.2-3.9,5c-0.7,0.9-0.9,0.9-1.5,0.1c-3.9-4.6-8.8-8.2-13-12.5
		C78.8,232.4,78.1,231.8,77.5,231.1z"/>
	<path class="st3" d="M251.4,226.4c-8.3,1.6-13.9,7-19.4,12.2c-0.5,0.5-1.1,1.6-1.9,0.7c-0.7-0.8-1.1-1.2-0.5-2.7
		c1.6-4.2,4.3-7.4,8.2-9.7c1.9-1.4,3.3-3.1,2.8-5.6c-0.3-1.4,0.7-2,1.4-3.1c0.5-0.7,1.1-0.7,1.6-0.1
		C246.1,220.7,248.9,223.2,251.4,226.4z"/>
	<path class="st4" d="M194.8,184.4c-4.6,2.8-9.7,3.7-15,5c-3.5,0.8-6.8,1.6-10.4,1.2c-0.8-0.1-1.2,0.5-1.5,0.9
		c-1.1,1.2-2.3,2.4-3.2,3.7c-1.2,1.8-1.9,1.1-2.7-0.1c-1.8-3.3-4.4-5-8.4-5.6c-5.4-0.9-10.8-2.4-15.8-5c-0.5-0.1-1.2-0.1-0.9-0.9
		s0.9-0.3,1.4-0.1c5.2,1.5,10.2,3.7,15.8,4.3c7.4,0.9,14.6,0.5,22-0.1C182.7,187.2,188.7,185.3,194.8,184.4L194.8,184.4z"/>
	<path class="st2" d="M183.6,109c1.8-4.3,3.7-8.6,5.4-12.9c1.8-5.4,3.3-10.8,4.4-16.3c0.8,8.3,1.4,16.5,2,24.5
		c0.1,1.6-0.3,2.4-2,2.4c-3.5,0.1-6.4,1.5-9.5,2.4C183.8,109.2,183.7,109,183.6,109z"/>
	<path class="st2" d="M140,108.4c-5-1.1-9.1-1.6-13.5-1.5c-1.1,0-0.8-0.5-0.8-1.1c0.7-7.1,1.6-14.4,3.7-21.3
		C130.9,93.3,133.9,101.2,140,108.4z"/>
	<path class="st3" d="M92.4,217.6c-0.3,1.4-0.1,2.7-0.9,3.7c-0.8,1-0.7,1.5,0.7,1.9c3.6,1.5,6.3,4.2,8.7,7.4
		c1.8,2.3-0.9,2.8-1.8,3.9c-1.1,1.5-1.6,0-2.3-0.7c-4-4-7.6-8.6-12.6-11.7c-1.1-0.7-0.9-1.2,0-1.9c1.8-1.6,3.3-3.5,5.1-5.1
		c1.8-1.6,2.3-1.5,2.8,0.8C92.2,216.6,92.3,217.2,92.4,217.6z"/>
	<path class="st3" d="M123.8,152c-3.7-0.7-6-3.5-8.6-5.8c-0.7-0.5-0.9-1.4-1.8-0.9l0,0c0.3-1.1,0.1-1.9-1.2-2.3
		c-0.3-0.3-0.8-1.1-0.3-1.1c1.8,0.1,1.4-1.1,1.1-1.8c-1.4-4.2,0.9-6.7,3.9-8.8c0.5-0.3,0.9-0.7,1.4-0.9c0.1,0,0.3-0.1,0.5-0.1
		c0.3,1.1-0.5,1.6-0.8,2.5c-1.2,4.8-0.7,9.5,1.2,14.1C120.4,149.2,122.6,150.2,123.8,152z"/>
	<path class="st4" d="M198.9,204.9c-3.6-1.5-6.6-3.5-7.8-7.4c-0.8-2.5-1.8-5-2.7-7.4c-0.5-1.1-0.1-1.5,0.9-1.8
		c3.1-1.1,3.1-1.1,4.3,1.8c1.9,4,3.9,8.2,5.1,12.2C198.6,203.2,199.1,203.8,198.9,204.9z"/>
	<path class="st3" d="M150.2,136.2c-0.8,6.2-2.4,11.7-7.6,15.4c-1.5,1.1-3.3,2.4-5.6,1.8c2.8-1.6,5.8-3.2,7.4-6.4
		c1.2-2.5,1.5-4.8,0.7-7.6c-0.8-2.5-0.5-5.4-1.5-8.3C146.5,132.1,148.5,134,150.2,136.2z"/>
	<path class="st4" d="M132.1,205.5c-0.1-2.7,0.1-5,0.7-7.1c0.8-3.9,2.3-7.5,4.3-11c1.2-1.9,2.5-0.7,3.6-0.1c1.4,0.7,0,1.5-0.3,2
		c-1.5,2.8-2.7,5.9-3.2,9c-0.1,1.9-1.1,3.3-2.4,4.4C134,203.6,133.2,204.4,132.1,205.5z"/>
	<path class="st3" d="M206.8,219.1c1.6,3.6,0.5,6-2.5,8.2c-2.5,1.8-5.1,3.5-7.9,4.8c-0.8,0.5-1.4,0.3-1.4-0.8c0-0.3,0-0.7-0.1-0.9
		c-0.7-2.3-0.1-3.7,2.3-4.4c2.5-0.8,4.4-2.5,6.7-3.7C205.2,221.5,205.7,220.2,206.8,219.1z"/>
	<path class="st3" d="M125.1,138.3c-2.4-0.1-4.3-1.1-5.6-3.2c0.1-4.3,3.3-6.8,6.8-5.2c1.8,0.8,3.2,1.8,2.8,3.9
		C128.9,136.6,127.8,137.9,125.1,138.3z"/>
	<path class="st1" d="M142.4,112.7c-5.2-1.4-10.4-2-16.1-1.8c-0.5,0-1.1,0.1-1.1-0.8c0-0.8,0.1-1.4,1.1-1.5c2.3-0.5,4.4,0,6.7,0.1
		c2,0.1,4.2,0.8,6.3,1.1c1.5,0.3,2.7,0.9,3.3,2.4C142.6,112.3,142.4,112.4,142.4,112.7z"/>
	<path class="st3" d="M127.7,222.7c2,1.6,3.7,3.9,6.4,4.4c0.7,0.1,0.5,0.7,0.5,0.9c-0.1,1.2-0.3,2.5-0.7,3.7
		C129.3,230.1,126.9,226.9,127.7,222.7z"/>
	<path class="st1" d="M180.6,114.1c0.9-2,2.5-3.2,4.4-3.7c3.1-0.9,5.9-2,9-2.3c0.7,0,1.2-0.1,1.1,0.8c-0.1,0.7,0.1,1.5-0.8,1.5
		c-4.8,0.1-9.1,2-13.5,3.9L180.6,114.1L180.6,114.1z"/>
	<path class="st4" d="M78.5,229.3c-0.7,0-4.3-3.1-4.3-3.5c0-1.2,1.1-1.6,1.8-2.5c0.7-0.8,1.2-0.1,1.6,0.3c0.8,0.8,1.6,1.4,2.4,2
		c0.5,0.5,1.4,0.7,0.8,1.5S79.6,228.9,78.5,229.3z"/>
	<path class="st4" d="M258.1,231.4c0.1,0.8-0.5,0.9-0.9,1.1c-1.5,0.5-2.8,1.1-4.3,1.5c-0.5,0.1-1.1,0.1-1.4-0.1
		c-0.5-0.7-1.4-1.2-1.4-1.8c-0.1-0.9,1.1-0.9,1.8-1.2c1.1-0.5,2.3-0.9,3.3-1.2C256.5,229.2,258,230.2,258.1,231.4z"/>
	<path class="st2" d="M147.7,102.6c0.8,3.2,2.3,5.9,3.3,9.4C146.5,109.5,148.2,105.5,147.7,102.6z"/>
	<path class="st4" d="M151.6,194.7c2.5,0.1,4.3,1.4,6,3.6C154.8,198.1,153.2,196.3,151.6,194.7z"/>
	<path class="st4" d="M171.2,198.5c1.2-2.3,3.3-3.5,5.9-3.6C175.4,196.7,173.7,197.9,171.2,198.5z"/>
	<path class="st3" d="M130.4,183.6c1.1-0.9,0.8-1.8,0.5-3.1c1.8,0.5,3.2,1.2,4.6,2.3C133.7,183.6,132.1,183.5,130.4,183.6z"/>
	<path class="st2" d="M124.4,182.7c1.9,0.3,3.7,0.5,5.8,1.1C124.2,185.2,124.7,184.8,124.4,182.7z"/>
	<path class="st1" d="M115.1,108.2c0.9,0.7,1.8,1.2,3.3,2c-1.6-0.1-2.7,0.8-3.7,0.1C114,110.2,115,109.2,115.1,108.2z"/>
	<path class="st2" d="M205.1,184.8c0.7-0.8,1.1-1.5,1.6-2.3c0.5,1.1,0.9,1.9,1.5,3.1C207.2,185.2,206.2,185.1,205.1,184.8z"/>
	<path class="st1" d="M204.1,108.7c0,0.5,0,0.9-0.1,1.2c0,0.5-0.3,0.9-0.8,0.8c-0.3,0-0.7-0.1-0.8-0.3c-0.3-0.5,0.3-0.8,0.5-0.9
		C203.3,109,203.4,108.6,204.1,108.7L204.1,108.7z"/>
	<path class="st4" d="M177.2,105.2c-0.1,0-0.5,0-0.7-0.1c-0.3-1.1,0.7-1.9,0.7-3.1C177.2,102.9,177.2,104.1,177.2,105.2z"/>
	<path class="st2" d="M74.5,228.6c-0.7-0.5-1.5-0.5-1.6-1.6c0.9,0,1.5,0.8,1.9,1.2C74.5,228.4,74.5,228.5,74.5,228.6z"/>
	<path class="st2" d="M112.4,143.3c1.4,0.3,1.4,1.2,1.2,2.3C112.8,144.6,112.5,143.8,112.4,143.3z"/>
	<path class="st2" d="M74.6,228.3c0.5,0.3,0.9,0.7,1.1,1.2c-0.8,0-1.1-0.5-1.4-0.9C74.5,228.5,74.5,228.4,74.6,228.3z"/>
	<path class="st1" d="M142.8,112.2c0.1,0.1,0.5,0.3,0.3,0.7c-0.1,0.1-0.5,0.1-0.7-0.1C142.4,112.4,142.6,112.3,142.8,112.2z"/>
	<path class="st1" d="M196.7,113.1c-0.1,0.3-0.3,0.5-0.7,0.3c-0.3-0.3-0.1-0.7,0.1-0.9C196.4,113,196.6,113.1,196.7,113.1z"/>
	<path class="st4" d="M194.8,184.4c0.1-0.1,0.3-0.1,0.5-0.3l0.1,0.1C195.1,184.3,194.9,184.4,194.8,184.4L194.8,184.4z"/>
	<path class="st1" d="M204.2,108.7c0-0.1,0-0.3,0-0.3C204.5,108.6,204.2,108.6,204.2,108.7C204.1,108.7,204.2,108.7,204.2,108.7z"/>
	<path class="st3" d="M135.6,153.7c-0.1,0.3-0.3,0.3-0.5,0C135.5,153.7,135.6,153.7,135.6,153.7z"/>
	<path class="st3" d="M124.7,152.5c-0.3-0.1-0.8,0-1.1-0.5C124.2,152,124.6,152,124.7,152.5z"/>
	<path class="st2" d="M183.8,109.2c-0.1,0.1-0.3,0.3-0.5,0c0,0,0.1-0.1,0.1-0.3C183.7,109,183.8,109.2,183.8,109.2z"/>
	<path class="st1" d="M204.3,118.2c-0.5,0.1-0.8,0.1-0.5-0.5C204.1,118.1,204.2,118.2,204.3,118.2z"/>
	<path class="st1" d="M209,178.1L209,178.1c0,0.1,0,0.2-0.2,0.2l-0.1-0.1C208.8,178.1,209,178.1,209,178.1z"/>
	<path class="st1" d="M210,177.7L210,177.7c-0.1,0.1-0.1,0-0.3,0l0.1-0.1C210,177.6,210,177.6,210,177.7z"/>
	<path class="st3" d="M125.7,152.9c-0.1-0.1-0.3-0.1-0.5-0.3C125.3,152.8,125.5,152.8,125.7,152.9z"/>
	<path class="st1" d="M180.6,114.1L180.6,114.1L180.6,114.1z"/>
	<path class="st0" d="M115.2,38.9c1.6,0.3,3.5,0.7,5.2,1.1c1.9,0.7,1.2,1.9,0.7,3.1c-1.4,1.9-2.8,3.7-4.3,5.6
		c-6,7.1-12.7,13.8-19.2,20.4c-2,2-5,3.6-7.1,5.6c-0.7,0.5-1.5,0.3-1.9-0.1c-4.3-2.8-8.2-6.3-9-11.8c-0.8-4.3,0.5-7.9,3.7-11
		c1.8-1.6,3.7-3.2,5.9-4.3c7.5-4.3,15.4-7.6,24.3-7.9C113.5,39.2,114.3,39,115.2,38.9z M80.1,60.3c0,5.4,3.2,8.8,7,11.9
		c1.5,1.2,4.2,0.7,5.2-1.2c0.8-1.2-1.1-1.6-1.5-2.5c-0.1-0.3-0.5-0.7-0.8-0.8c-1.8-1.1-1.2-2,0.1-3.1c5-3.7,9.1-8.6,13.5-12.9
		c2.3-2.3,3.9-4.3,2.4-7.6c-0.1-0.3-0.1-0.8-0.1-1.1c0.1-1.5-0.7-1.5-1.6-1.2c-5.1,1.2-9.5,3.6-14.1,6c-2.3,1.2-4.3,2.8-6.4,4.4
		C81.2,54.4,80.1,57.1,80.1,60.3z M91.1,66.3c0.7,0.5,1.1,0.9,1.5,1.4c1.4,1.5,2.4,1.6,3.9,0c3.2-3.5,6.4-6.8,9.7-10.2
		c4.6-4.4,8.7-9.5,12.9-14.5c1.1-1.2,1.5-1.6-0.7-2c-2.8-0.7-5.6-0.3-8.4-0.1c-1.8,0.1-2.3,0.9-1.8,2.4c1.2,3.9-0.3,6.6-3.2,9.5
		C100.8,57.5,96.2,61.9,91.1,66.3z"/>
	<path class="st0" d="M218.4,39.4c8.2,0.8,15.1,3.7,21.8,8.3c4.3,3.1,7.9,6.8,10.7,11.4c3.1,5,1.6,12.2-3.1,15.8
		c-2.8,2-7.4,3.5-10.8-0.7c-4.4-5.2-8.4-10.8-12.7-16.2c-3.9-4.8-6.8-10.2-9.7-15.5c-0.9-1.6-0.3-2.4,1.2-2.7
		C216.7,39.7,217.7,39.4,218.4,39.4z M237.4,72.8c1.6,1.8,3.1,2.8,5.2,2.7c6.8-0.1,10.2-10.4,7-15.5c-4-6.6-9.5-11.4-16.5-14.7
		c-0.5-0.1-0.9-0.7-1.4-0.3c-1.4,0.8-2.3,3.3-1.5,4.8c2.8,6.4,5.8,12.7,9.7,18.6c1.8,2.5,1.4,3.5-1.4,4.2
		C238.4,72.5,238.1,72.5,237.4,72.8z M218.3,40.7c-2.8,0-3.1,0.3-1.6,3.1c0.3,0.8,0.8,1.4,1.1,2c4,7.6,9.5,14.1,14.7,20.9
		c0.9,1.1,1.6,2.3,2.5,3.3c1.1,1.4,2,0.3,3.1-0.1c1.1-0.7,0-1.2-0.3-1.6c-3.9-5.1-5.8-11.1-8.8-16.5c-1.5-2.5-2-5,0.8-6.8
		c0.8-0.5,0.7-1.1-0.3-1.4C225.9,42,222.3,41.1,218.3,40.7z"/>
	<path class="st0" d="M208.2,153.2c-4.6,1.1-9.3,1.2-13.8-0.7c-1.2-0.5-1.9-1.4-2.5-2.4c-3.1-6.6-3.7-13.3-0.3-20.4
		c-2.8,1.5-5,3.1-6.4,5.1c-0.5,0.1-1.2,0.3-1.2-0.5c0-1.2-0.3-2.3,0.8-3.3c3.1-3.3,6.7-5.6,11-7.1c4.2-1.6,8.7-2.4,13.4-1.9
		c3.5,0.3,6.4,1.8,9.4,3.5c1.1,0.7,1.6,0.9,2.5-0.1c0.3-0.5,0.9-0.9,1.5-0.5c0.7,0.7-0.1,0.9-0.5,1.4c-0.5,0.5-1.4,0.8-0.5,1.6
		c0.9,0.9,1.4,0.3,1.9-0.1c0.5-0.3,1.1-0.8,1.5-0.3c0.7,0.8,0,1.2-0.7,1.5c-1.1,0.7-1.1,1.4-0.3,2c0.1,0.1,0.3,0.3,0.3,0.5
		c2.3,3.3,2.3,3.3-0.3,6.4c-0.9,1.2-1.6,2.4-2.5,3.6c-1.2,0-1.4-0.7-1.1-1.6c0.5-1.4,1.4-2.7,0.7-4.3c-1.1-2-2.3-3.9-3.9-5.4
		c-0.5-0.5-0.9-0.8-1.5-0.5c-0.9,0.5-0.1,0.9,0,1.4c0.8,2.5,0.7,5.4,0.7,7.9c-0.1,5.6-2.3,10.2-7,13.4l0,0
		C208.8,152.9,208.4,152.9,208.2,153.2z M191,136.1c-0.5,1.9-0.7,3.9-0.5,5.9c0.7,5.1,1.6,9.1,7.9,10.4c1.9,0.5,3.7,0.3,5.8,0.1
		c6-0.7,10.4-5.9,10.1-11.7c0-0.7,0-1.2-0.5-1.6c-0.9-0.9-2.3-2-3.3-1.9c-1.1,0.1-0.8,1.8-0.9,3.1c-0.1,3.7-2,6.2-5.8,7.1
		c-3.3,0.9-5.4-0.3-6.4-3.6c-0.7-1.8-0.8-3.6-0.7-5.4c1.2-0.8,2.5-1.4,3.3-2.5c1.1-1.4,1.8-3.1,1.1-4.8c-0.7-1.5-2.3-1.9-3.7-1.9
		C194,129.1,191.2,132.1,191,136.1z"/>
	<path class="st3" d="M209.2,152.9c4.8-3.2,6.8-7.8,7-13.4c0-2.7,0.1-5.4-0.7-7.9c-0.1-0.5-0.9-1.1,0-1.4c0.7-0.3,1.1,0,1.5,0.5
		c1.8,1.5,3.1,3.5,3.9,5.4c0.8,1.5-0.1,2.8-0.7,4.3c-0.3,1.2-0.1,1.6,1.1,1.6c-2.5,3.9-5.4,7.5-9.3,10.1
		C211.2,152.6,210.3,153,209.2,152.9z"/>
	<path class="st3" d="M185.2,135.1c1.5-2.3,3.6-3.6,6.4-5.1c-3.6,7.4-2.8,13.9,0.3,20.4c-2.7-0.8-3.9-2.7-4.6-5.2
		C186.3,141.8,185.6,138.6,185.2,135.1z"/>
	<path class="st0" d="M172.6,172.6c-3.6,1.5-7.4,2-11,0C165.2,172.6,169,172.5,172.6,172.6z"/>
	<path class="st3" d="M208.2,153.2c0.1-0.3,0.7-0.5,0.9-0.5C209,153.2,208.5,153.2,208.2,153.2z"/>
	<path class="st0" d="M164.1,262.9c0.3-6.8-1.4-12.9-1.2-19c0-1.1-0.8-0.9-1.2-1.2c-1.8-0.9-2.5-2.4-2-4.3c0.1-0.9,0.3-1.4-0.8-1.8
		c-0.9-0.3-1.4-1.2-1.6-2c-0.9-2.4,0.1-6.8,1.9-8.6c1.6-1.5,5.2-1.6,7.8-0.1c2.8,1.6,3.3,4.2,2,8.4c-0.7,1.9-1.9,3.6-2,5.8
		c0,0.7-0.5,1.4-0.9,1.6c-2.8,1.8-1.9,4.4-1.9,7c0,1.9,0.3,3.7,0.7,5.8c0.7,4.4-0.1,9,0.7,13.5c0,0.3,0.1,0.8-0.3,0.9
		c-0.7,0.1-0.8-0.3-0.8-0.8C164.2,265.9,164.2,264,164.1,262.9z M168.4,230.8c0.7-3.1-2.7-4.4-5.1-4.6c-2.8-0.1-5.1,2.5-5.1,6
		c0,1.5,2.5,3.2,5.1,3.2C166,235.3,168.4,233.2,168.4,230.8z M160.9,239.7c0,1.2,1.1,1.8,2.4,1.9c1.2,0.1,2.7-1.5,2.5-2.8
		c-0.1-1.4-0.9-2-2.4-2.3C162,236.7,160.9,237.9,160.9,239.7z"/>
	<path class="st0" d="M188.8,237.5c3.3,0,6.4,0,9.7,0c0.8,0,1.5-0.1,1.6,0.8c0.1,0.8-0.5,1.4-1.1,1.6c-3.2,1.9-6.7,3.1-10.2,4
		c-3.6,1.2-7.4,2.3-11,3.2c-2.5,0.7-3.3,0-3.1-2.7c0.1-1.6,0.5-3.2,0.8-4.8c0.3-1.8,1.5-2.5,3.3-2.7c3.3,0,6.4,0,9.7,0
		C188.8,237.2,188.8,237.2,188.8,237.5z M197.9,238.6c-4.6,0-9.3,0-13.8,0c-1.6,0-3.3,0-4.8,0c-0.8,0-1.5,0.1-1.8,1.1
		c-0.5,1.6-0.8,3.3-0.9,5c0,0.9,0.3,1.4,1.2,1.1C184.6,243.9,191.5,241.9,197.9,238.6z"/>
	<path class="st0" d="M134,238.4c4.8-0.3,9.7-0.7,14.5-0.1c1.1,0.1,2.3,0.3,3.3,0.3c0.9,0,0.8,0.8,0.8,1.2c0,2-0.1,4,0,6.2
		c0,1.2-0.9,1.1-1.6,1.1c-6.8,0.5-13.3-1.8-19-5.6c-0.9-0.7-1.6-1.1-2.4-1.8c-0.3-0.3-0.8-0.5-0.7-0.9c0.1-0.4,0.7-0.5,1.1-0.5
		C131.5,238.4,132.9,238.4,134,238.4z M132.3,239.7c4.3,3.2,9.1,4.8,14.1,5.6c4.4,0.8,5,0.1,5-4.2c0-1.2-0.5-1.4-1.5-1.5
		C144.1,239.1,138.4,239.7,132.3,239.7z"/>
	<path class="st0" d="M169.7,218.1c-0.1,3.2-0.1,3.2-3.2,3.6c-2.7,0.3-2.8,0.3-2.8-2.5c0-1.1,0-1.9,0-3.1c0-1.5,0.7-2,2-2
		C170.8,213.9,169.7,214,169.7,218.1z M167.9,214.9c-3.1,0-4,1.5-3.5,5C165.8,218.1,166.8,216.6,167.9,214.9z M166.2,220
		c2.5,0,2.5,0,2-3.1C167.5,218,166.8,218.8,166.2,220z"/>
	<path class="st0" d="M162.5,217.5c0,0.1,0,0.5,0,0.7c0,3.7-0.7,4.2-4.3,3.7c-1.1-0.1-1.6-0.7-1.5-1.8s0.1-2.5,0-3.7
		c-0.1-1.6,0.5-2,2-2.3C162.5,213.9,162.5,213.8,162.5,217.5z M157.9,219.4c0.9-1.6,1.9-2.7,2.4-4.2
		C157.5,215.5,157.5,215.5,157.9,219.4z M159.1,220.4c2.7,0.3,3.1-0.1,2-3.5c-0.7,0.9-1.1,1.6-1.6,2.5
		C159.3,219.8,159.2,220,159.1,220.4z"/>
	<path class="st0" d="M210,199c0-2.5,1.8-4.4,4.3-4.3c2.8,0,4.8,1.8,4.8,4c0,2-2.4,4.3-4.6,4.4C212.1,203.2,210,201.3,210,199z
		 M217.6,197.9c-1.5-2.3-4.2-2.5-5.8-0.8c-0.5,0.7-0.5,1.1,0.5,1.1C213.9,198.5,215.5,198.5,217.6,197.9z M211.3,199.8
		c2.4,2.8,4.3,2.7,5.9-0.1C215.3,199.8,213.3,200.2,211.3,199.8z"/>
	<path class="st0" d="M119.1,202.8c-1.8,0-4.2-2-4.2-3.9c0-2.8,2-5.6,4.4-5.6c1.9,0,5,2.7,5,4.4
		C124.4,200.2,121.4,202.7,119.1,202.8z M122.9,197.7c-0.7-1.6-1.5-2.5-3.1-2.7c-1.1-0.1-1.9,0-2.5,1.1c-0.1,0.3-0.7,0.8-0.3,1.2
		c0.1,0.5,0.8,0.5,1.1,0.5C119.5,197.7,121,197.7,122.9,197.7z M116.3,199.3c2,3.1,4,3.1,5.9,0C120.4,198.7,118.5,199.3,116.3,199.3
		z"/>
	<path class="st3" d="M80.1,60.3c0-3.2,1.1-5.8,3.5-7.8c1.9-1.6,4-3.3,6.4-4.4c4.4-2.4,9.1-4.8,14.1-6c1.1-0.3,1.8-0.3,1.6,1.2
		c0,0.3,0,0.8,0.1,1.1c1.5,3.3-0.1,5.6-2.4,7.6c-4.3,4.4-8.4,9.1-13.5,12.9c-1.2,0.9-1.9,1.9-0.1,3.1c0.3,0.1,0.7,0.5,0.8,0.8
		c0.5,0.9,2.3,1.4,1.5,2.5c-0.9,1.8-3.7,2.3-5.2,1.2C83.2,69.1,80.1,65.7,80.1,60.3z"/>
	<path class="st3" d="M91.1,66.3c5.1-4.4,9.7-8.8,14.2-13.7c2.8-2.8,4.2-5.6,3.2-9.5c-0.5-1.5,0.1-2.3,1.8-2.4
		c2.8-0.1,5.6-0.5,8.4,0.1c2,0.5,1.6,1.1,0.7,2c-4.2,5-8.3,9.9-12.9,14.5c-3.3,3.3-6.6,6.7-9.7,10.2c-1.5,1.6-2.5,1.5-3.9,0
		C92.2,67.2,91.6,66.9,91.1,66.3z"/>
	<path class="st3" d="M237.4,72.8c0.7-0.1,0.9-0.3,1.2-0.3c2.7-0.9,3.2-1.8,1.4-4.2c-4-5.8-6.8-12.1-9.7-18.6
		c-0.7-1.5,0.1-3.9,1.5-4.8c0.7-0.3,0.9,0,1.4,0.3c6.8,3.5,12.2,8.3,16.5,14.7c3.2,5-0.1,15.3-7,15.5
		C240.5,75.6,239.1,74.6,237.4,72.8z"/>
	<path class="st3" d="M218.3,40.7c4,0.3,7.6,1.2,11.1,2.7c0.9,0.3,1.1,0.9,0.3,1.4c-2.8,2-2.3,4.3-0.8,6.8c3.2,5.4,5,11.5,8.8,16.5
		c0.3,0.5,1.4,1.1,0.3,1.6c-0.9,0.5-1.9,1.5-3.1,0.1c-0.9-1.1-1.6-2.3-2.5-3.3c-5.2-6.7-10.8-13.4-14.7-20.9c-0.3-0.8-0.8-1.4-1.1-2
		C215.3,41.1,215.4,40.9,218.3,40.7z"/>
	<path class="st4" d="M197,138.4c-0.1,1.8,0,3.6,0.7,5.4c1.1,3.3,3.2,4.4,6.4,3.6c3.6-0.9,5.6-3.5,5.8-7.1c0-1.1-0.3-2.7,0.9-3.1
		c1.2-0.1,2.4,1.1,3.3,1.9c0.5,0.5,0.5,1.1,0.5,1.6c0.3,6-4,11.1-10.1,11.7c-1.9,0.1-3.7,0.3-5.8-0.1c-6.3-1.5-7.4-5.4-7.9-10.4
		c-0.1-1.9,0-3.9,0.5-5.9C192.4,138.3,194.8,138.2,197,138.4z"/>
	<path class="st3" d="M197,138.4c-2-0.3-4.4-0.1-5.9-2.4c0-4,2.8-7,6.4-6.8c1.5,0,3.2,0.5,3.7,1.9c0.8,1.6,0,3.3-1.1,4.8
		C199.4,137,198.2,137.8,197,138.4z"/>
	<path class="st4" d="M168.4,230.8c0,2.4-2.4,4.4-5,4.4s-5.1-1.6-5.1-3.2c0-3.5,2-6.2,5.1-6C165.8,226.1,169,227.8,168.4,230.8z"/>
	<path class="st4" d="M160.9,239.7c0-1.9,1.2-3.2,2.7-3.2c1.4,0,2.3,0.8,2.4,2.3c0.1,1.4-1.4,3.1-2.5,2.8
		C161.9,241.6,160.9,240.9,160.9,239.7z"/>
	<path class="st1" d="M197.9,238.6c-6.4,3.5-13.3,5.4-20.1,7.1c-1.1,0.3-1.2-0.1-1.2-1.1c0-1.6,0.5-3.3,0.9-5
		c0.3-1.1,1.1-1.1,1.8-1.1c1.6,0,3.3,0,4.8,0C188.7,238.6,193.2,238.6,197.9,238.6z"/>
	<path class="st1" d="M132.3,239.7c6,0,11.8-0.8,17.6-0.1c1.1,0.1,1.5,0.3,1.5,1.5c0,4.4-0.5,5-5,4.2
		C141.4,244.6,136.7,242.8,132.3,239.7z"/>
	<path class="st2" d="M167.9,214.9c-1.2,1.6-2.3,3.3-3.5,5C163.9,216.4,165,214.9,167.9,214.9z"/>
	<path class="st2" d="M166.2,220c0.8-1.2,1.4-2,2-3.1C168.7,220,168.7,220.2,166.2,220z"/>
	<path class="st3" d="M157.9,219.4c-0.5-4-0.5-4,2.4-4.2C159.9,216.7,158.8,217.9,157.9,219.4z"/>
	<path class="st2" d="M159.1,220.4c0.1-0.3,0.3-0.7,0.5-0.9c0.7-0.9,1.1-1.6,1.6-2.5C162,220.2,161.6,220.6,159.1,220.4z"/>
	<path class="st1" d="M217.6,197.9c-1.9,0.5-3.6,0.5-5.2,0.5c-0.9,0-0.9-0.5-0.5-1.1C213.3,195.4,215.9,195.8,217.6,197.9z"/>
	<path class="st1" d="M211.3,199.8c2,0.3,3.9,0,5.9-0.1C215.8,202.7,213.7,202.7,211.3,199.8z"/>
	<path class="st1" d="M122.9,197.7c-1.6,0-3.3,0-4.8,0c-0.5,0-0.9,0.1-1.1-0.5c-0.1-0.5,0.1-0.8,0.3-1.2c0.7-1.1,1.5-1.2,2.5-1.1
		C121.3,195.1,122.2,196.1,122.9,197.7z"/>
	<path class="st1" d="M116.3,199.3c2,0,4-0.5,5.9,0C120.4,202.2,118.5,202.2,116.3,199.3z"/>
</g>
</svg>
